<svg width="60" height="60" viewBox="0 0 60 60" fill="none" xmlns="http://www.w3.org/2000/svg">
<path fill-rule="evenodd" clip-rule="evenodd" d="M27.4142 39.4142C28.1953 38.6332 28.1953 37.3668 27.4142 36.5858L22.8284 32H42.0029C43.1059 32 44 31.1046 44 30C44 28.8954 43.1059 28 42.0029 28H22.8284L27.4142 23.4142C28.1953 22.6332 28.1953 21.3668 27.4142 20.5858C26.6332 19.8047 25.3668 19.8047 24.5858 20.5858L16.5858 28.5858C15.8047 29.3668 15.8047 30.6332 16.5858 31.4142L24.5858 39.4142C25.3668 40.1953 26.6332 40.1953 27.4142 39.4142Z" fill="#030B11"/>
<mask id="mask0_331_10029" style="mask-type:luminance" maskUnits="userSpaceOnUse" x="16" y="20" width="28" height="20">
<path fill-rule="evenodd" clip-rule="evenodd" d="M27.4142 39.4142C28.1953 38.6332 28.1953 37.3668 27.4142 36.5858L22.8284 32H42.0029C43.1059 32 44 31.1046 44 30C44 28.8954 43.1059 28 42.0029 28H22.8284L27.4142 23.4142C28.1953 22.6332 28.1953 21.3668 27.4142 20.5858C26.6332 19.8047 25.3668 19.8047 24.5858 20.5858L16.5858 28.5858C15.8047 29.3668 15.8047 30.6332 16.5858 31.4142L24.5858 39.4142C25.3668 40.1953 26.6332 40.1953 27.4142 39.4142Z" fill="white"/>
</mask>
<g mask="url(#mask0_331_10029)">
<rect width="60" height="60" fill="#030B11"/>
</g>
</svg>
