<svg width="231" height="134" viewBox="0 0 231 134" fill="none" xmlns="http://www.w3.org/2000/svg">
<g filter="url(#filter0_b_275_3111)">
<rect y="0.290771" width="231" height="132.843" rx="14.8243" fill="#808B96" fill-opacity="0.2"/>
</g>
<path d="M70.4135 62.666V61.4616H72.6371C73.1737 61.4616 73.5907 61.3245 73.8879 61.0504C74.1852 60.7725 74.3338 60.3826 74.3338 59.8807V59.8691C74.3338 59.3634 74.1852 58.9735 73.8879 58.6994C73.5907 58.4253 73.1737 58.2882 72.6371 58.2882H70.4135V57.0722H73.002C73.5694 57.0722 74.0655 57.188 74.4902 57.4196C74.9148 57.6513 75.2468 57.9775 75.4862 58.3983C75.7255 58.8152 75.8452 59.3036 75.8452 59.8633V59.8749C75.8452 60.4308 75.7255 60.9192 75.4862 61.34C75.2468 61.7569 74.9148 62.0831 74.4902 62.3186C74.0655 62.5502 73.5694 62.666 73.002 62.666H70.4135ZM69.6665 65.4282V57.0722H71.1605V65.4282H69.6665ZM77.345 65.4282V59.0989H78.7869V60.0718H78.8853C78.9934 59.7321 79.1865 59.4676 79.4644 59.2785C79.7462 59.0893 80.0956 58.9947 80.5125 58.9947C80.6206 58.9947 80.7268 59.0024 80.831 59.0179C80.9391 59.0295 81.0279 59.0449 81.0974 59.0642V60.3555C80.9816 60.3285 80.8638 60.3092 80.7442 60.2976C80.6284 60.2822 80.5067 60.2745 80.3794 60.2745C80.0589 60.2745 79.779 60.3343 79.5397 60.454C79.3003 60.5737 79.115 60.7454 78.9838 60.9694C78.8525 61.1894 78.7869 61.45 78.7869 61.7511V65.4282H77.345ZM82.2845 65.4282V59.0989H83.7206V65.4282H82.2845ZM83.0083 58.0392C82.7729 58.0392 82.5702 57.9562 82.4003 57.7902C82.2305 57.6242 82.1455 57.4254 82.1455 57.1938C82.1455 56.9544 82.2305 56.7537 82.4003 56.5916C82.5702 56.4256 82.7729 56.3426 83.0083 56.3426C83.2438 56.3426 83.4446 56.4256 83.6106 56.5916C83.7804 56.7537 83.8654 56.9544 83.8654 57.1938C83.8654 57.4254 83.7804 57.6242 83.6106 57.7902C83.4446 57.9562 83.2438 58.0392 83.0083 58.0392ZM85.4984 65.4282V59.0989H86.9403V60.0834H87.0387C87.1738 59.7321 87.3919 59.4599 87.6931 59.2669C87.998 59.0739 88.359 58.9773 88.7759 58.9773C89.0616 58.9773 89.3183 59.0237 89.5461 59.1163C89.7777 59.209 89.9765 59.3402 90.1425 59.5101C90.3085 59.68 90.4359 59.8826 90.5247 60.1181H90.629C90.7332 59.8903 90.878 59.6915 91.0633 59.5217C91.2524 59.348 91.4725 59.2148 91.7234 59.1221C91.9782 59.0256 92.2523 58.9773 92.5457 58.9773C92.9703 58.9773 93.3332 59.0623 93.6343 59.2321C93.9393 59.3981 94.1729 59.6375 94.335 59.9502C94.501 60.2629 94.584 60.6374 94.584 61.0736V65.4282H93.1421V61.4268C93.1421 61.1489 93.0997 60.9192 93.0147 60.7377C92.9337 60.5563 92.8082 60.4192 92.6383 60.3266C92.4685 60.2339 92.2542 60.1876 91.9956 60.1876C91.7446 60.1876 91.5265 60.2455 91.3412 60.3613C91.1559 60.4733 91.0111 60.6258 90.9069 60.8188C90.8065 61.0118 90.7564 61.2299 90.7564 61.4732V65.4282H89.3145V61.3226C89.3145 61.0871 89.2681 60.8844 89.1755 60.7146C89.0867 60.5447 88.9554 60.4154 88.7817 60.3266C88.6118 60.2339 88.4092 60.1876 88.1737 60.1876C87.9382 60.1876 87.7259 60.2494 87.5367 60.3729C87.3514 60.4926 87.2047 60.6586 87.0966 60.8709C86.9924 61.0794 86.9403 61.3149 86.9403 61.5774V65.4282H85.4984ZM98.0064 65.5325C97.6087 65.5325 97.2516 65.4552 96.9351 65.3008C96.6224 65.1464 96.3753 64.9283 96.1939 64.6465C96.0163 64.3608 95.9275 64.0249 95.9275 63.6389V63.6273C95.9275 63.2528 96.0201 62.9305 96.2054 62.6603C96.3907 62.3862 96.6629 62.1719 97.0219 62.0175C97.381 61.8631 97.8172 61.7723 98.3306 61.7453L100.67 61.6005V62.5502L98.5333 62.6892C98.128 62.7124 97.8288 62.7973 97.6357 62.944C97.4427 63.0907 97.3462 63.2953 97.3462 63.5578V63.5694C97.3462 63.8396 97.4485 64.05 97.6531 64.2006C97.8616 64.3511 98.126 64.4264 98.4464 64.4264C98.736 64.4264 98.9946 64.3685 99.2224 64.2527C99.4502 64.1369 99.6297 63.9805 99.7609 63.7837C99.8922 63.5829 99.9578 63.3571 99.9578 63.1061V61.1025C99.9578 60.786 99.8575 60.5447 99.6567 60.3787C99.456 60.2088 99.1587 60.1239 98.7649 60.1239C98.4368 60.1239 98.1685 60.1818 97.96 60.2976C97.7516 60.4096 97.6107 60.5698 97.5373 60.7783L97.5315 60.8014H96.1707L96.1765 60.7493C96.2228 60.3941 96.3618 60.0834 96.5934 59.817C96.825 59.5506 97.132 59.3441 97.5141 59.1974C97.8963 59.0507 98.3364 58.9773 98.8344 58.9773C99.3826 58.9773 99.8459 59.0623 100.224 59.2321C100.603 59.3981 100.89 59.6413 101.087 59.9618C101.284 60.2783 101.382 60.6586 101.382 61.1025V65.4282H99.9578V64.5596H99.8594C99.7436 64.7604 99.593 64.9341 99.4077 65.0808C99.2263 65.2275 99.0178 65.3394 98.7823 65.4166C98.5468 65.4939 98.2882 65.5325 98.0064 65.5325ZM103.114 65.4282V59.0989H104.556V60.0718H104.654C104.762 59.7321 104.955 59.4676 105.233 59.2785C105.515 59.0893 105.864 58.9947 106.281 58.9947C106.389 58.9947 106.496 59.0024 106.6 59.0179C106.708 59.0295 106.797 59.0449 106.866 59.0642V60.3555C106.75 60.3285 106.633 60.3092 106.513 60.2976C106.397 60.2822 106.276 60.2745 106.148 60.2745C105.828 60.2745 105.548 60.3343 105.308 60.454C105.069 60.5737 104.884 60.7454 104.753 60.9694C104.621 61.1894 104.556 61.45 104.556 61.7511V65.4282H103.114ZM108.806 67.6519C108.717 67.6519 108.625 67.6499 108.528 67.6461C108.435 67.6422 108.345 67.6364 108.256 67.6287V66.5227C108.314 66.5304 108.381 66.5343 108.459 66.5343C108.536 66.5381 108.611 66.54 108.684 66.54C108.982 66.54 109.219 66.4744 109.397 66.3432C109.578 66.2158 109.707 66.0092 109.785 65.7236L109.86 65.434L107.596 59.0989H109.171L110.839 64.7044L110.445 64.0442H110.943L110.561 64.7044L112.228 59.0989H113.746L111.476 65.5672C111.294 66.0922 111.086 66.5072 110.85 66.8122C110.615 67.1172 110.331 67.3334 109.999 67.4608C109.671 67.5882 109.273 67.6519 108.806 67.6519ZM121.187 65.6367C120.538 65.6367 119.974 65.5363 119.496 65.3356C119.021 65.1348 118.646 64.8549 118.372 64.4959C118.098 64.1369 117.944 63.718 117.909 63.2393L117.903 63.1583H119.351L119.357 63.2162C119.38 63.4517 119.473 63.6563 119.635 63.83C119.801 64.0037 120.021 64.1407 120.295 64.2411C120.569 64.3376 120.882 64.3859 121.233 64.3859C121.569 64.3859 121.866 64.3338 122.125 64.2295C122.383 64.1253 122.586 63.9825 122.733 63.801C122.879 63.6157 122.953 63.4034 122.953 63.164V63.1583C122.953 62.8571 122.835 62.612 122.6 62.4228C122.364 62.2298 121.976 62.0754 121.436 61.9596L120.538 61.7743C119.681 61.5928 119.058 61.3033 118.668 60.9057C118.282 60.5042 118.089 59.9927 118.089 59.3711V59.3653C118.089 58.8673 118.22 58.4311 118.482 58.0566C118.749 57.6821 119.114 57.3907 119.577 57.1822C120.044 56.9699 120.579 56.8637 121.181 56.8637C121.799 56.8637 122.333 56.968 122.785 57.1764C123.237 57.381 123.592 57.6609 123.85 58.0161C124.109 58.3712 124.254 58.7727 124.285 59.2206L124.29 59.2958H122.866L122.854 59.2263C122.82 59.0063 122.729 58.8152 122.582 58.6531C122.439 58.4871 122.248 58.3558 122.009 58.2593C121.77 58.1628 121.49 58.1145 121.169 58.1145C120.864 58.1145 120.592 58.1628 120.353 58.2593C120.113 58.3519 119.924 58.4832 119.785 58.6531C119.65 58.8229 119.583 59.0275 119.583 59.2669V59.2727C119.583 59.5661 119.697 59.8093 119.924 60.0023C120.156 60.1953 120.532 60.3459 121.053 60.454L121.951 60.6451C122.538 60.7686 123.015 60.9327 123.381 61.1373C123.748 61.3419 124.016 61.5967 124.186 61.9017C124.36 62.2028 124.447 62.5657 124.447 62.9903V62.9961C124.447 63.5366 124.314 64.0037 124.047 64.3975C123.785 64.7912 123.408 65.0962 122.918 65.3124C122.432 65.5286 121.855 65.6367 121.187 65.6367ZM127.643 65.5325C127.246 65.5325 126.889 65.4552 126.572 65.3008C126.259 65.1464 126.012 64.9283 125.831 64.6465C125.653 64.3608 125.564 64.0249 125.564 63.6389V63.6273C125.564 63.2528 125.657 62.9305 125.842 62.6603C126.028 62.3862 126.3 62.1719 126.659 62.0175C127.018 61.8631 127.454 61.7723 127.968 61.7453L130.307 61.6005V62.5502L128.17 62.6892C127.765 62.7124 127.466 62.7973 127.273 62.944C127.08 63.0907 126.983 63.2953 126.983 63.5578V63.5694C126.983 63.8396 127.085 64.05 127.29 64.2006C127.499 64.3511 127.763 64.4264 128.083 64.4264C128.373 64.4264 128.632 64.3685 128.859 64.2527C129.087 64.1369 129.267 63.9805 129.398 63.7837C129.529 63.5829 129.595 63.3571 129.595 63.1061V61.1025C129.595 60.786 129.494 60.5447 129.294 60.3787C129.093 60.2088 128.796 60.1239 128.402 60.1239C128.074 60.1239 127.805 60.1818 127.597 60.2976C127.389 60.4096 127.248 60.5698 127.174 60.7783L127.168 60.8014H125.808L125.813 60.7493C125.86 60.3941 125.999 60.0834 126.23 59.817C126.462 59.5506 126.769 59.3441 127.151 59.1974C127.533 59.0507 127.973 58.9773 128.471 58.9773C129.02 58.9773 129.483 59.0623 129.861 59.2321C130.24 59.3981 130.527 59.6413 130.724 59.9618C130.921 60.2783 131.019 60.6586 131.019 61.1025V65.4282H129.595V64.5596H129.496C129.381 64.7604 129.23 64.9341 129.045 65.0808C128.863 65.2275 128.655 65.3394 128.419 65.4166C128.184 65.4939 127.925 65.5325 127.643 65.5325ZM134.256 65.4282L132.004 59.0989H133.544L135.003 64.0211H135.108L136.561 59.0989H138.078L135.831 65.4282H134.256ZM139.312 65.4282V59.0989H140.748V65.4282H139.312ZM140.036 58.0392C139.8 58.0392 139.597 57.9562 139.427 57.7902C139.258 57.6242 139.173 57.4254 139.173 57.1938C139.173 56.9544 139.258 56.7537 139.427 56.5916C139.597 56.4256 139.8 56.3426 140.036 56.3426C140.271 56.3426 140.472 56.4256 140.638 56.5916C140.808 56.7537 140.893 56.9544 140.893 57.1938C140.893 57.4254 140.808 57.6242 140.638 57.7902C140.472 57.9562 140.271 58.0392 140.036 58.0392ZM142.526 65.4282V59.0989H143.967V60.0718H144.066C144.216 59.7282 144.444 59.4599 144.749 59.2669C145.054 59.0739 145.434 58.9773 145.89 58.9773C146.596 58.9773 147.137 59.1819 147.511 59.5912C147.886 60.0004 148.073 60.5814 148.073 61.3342V65.4282H146.631V61.67C146.631 61.1759 146.527 60.8053 146.318 60.5582C146.114 60.3111 145.793 60.1876 145.357 60.1876C145.072 60.1876 144.824 60.2513 144.616 60.3787C144.408 60.5061 144.247 60.6856 144.135 60.9172C144.023 61.1489 143.967 61.423 143.967 61.7395V65.4282H142.526ZM152.497 67.6519C151.941 67.6519 151.461 67.5785 151.055 67.4318C150.654 67.2851 150.337 67.0767 150.106 66.8064C149.874 66.54 149.733 66.2293 149.683 65.8741L149.689 65.8567H151.125L151.136 65.8741C151.183 66.0749 151.324 66.2389 151.559 66.3663C151.798 66.4976 152.119 66.5632 152.52 66.5632C153.014 66.5632 153.397 66.4532 153.667 66.2331C153.941 66.0131 154.078 65.7004 154.078 65.295V64.079H153.98C153.86 64.3068 153.704 64.4998 153.511 64.6581C153.321 64.8163 153.103 64.936 152.856 65.0171C152.613 65.0943 152.345 65.1329 152.051 65.1329C151.519 65.1329 151.057 65.0055 150.667 64.7507C150.277 64.4921 149.976 64.135 149.764 63.6794C149.555 63.2239 149.451 62.6969 149.451 62.0985V62.087C149.451 61.477 149.557 60.9404 149.77 60.4771C149.982 60.0139 150.283 59.651 150.673 59.3885C151.067 59.126 151.536 58.9947 152.08 58.9947C152.374 58.9947 152.642 59.041 152.885 59.1337C153.132 59.2263 153.348 59.3576 153.534 59.5275C153.723 59.6973 153.877 59.9019 153.997 60.1413H154.072V59.0989H155.514V65.2719C155.514 65.7583 155.391 66.1791 155.144 66.5343C154.9 66.8933 154.553 67.1693 154.101 67.3623C153.65 67.5554 153.115 67.6519 152.497 67.6519ZM152.497 63.9863C152.829 63.9863 153.115 63.9072 153.354 63.7489C153.594 63.5868 153.777 63.3648 153.904 63.083C154.036 62.8012 154.101 62.473 154.101 62.0985V62.087C154.101 61.7125 154.036 61.3844 153.904 61.1025C153.777 60.8169 153.594 60.5949 153.354 60.4366C153.115 60.2745 152.829 60.1934 152.497 60.1934C152.161 60.1934 151.876 60.2745 151.64 60.4366C151.409 60.5949 151.231 60.8169 151.107 61.1025C150.988 61.3844 150.928 61.7125 150.928 62.087V62.0985C150.928 62.4692 150.988 62.7973 151.107 63.083C151.231 63.3648 151.409 63.5868 151.64 63.7489C151.876 63.9072 152.161 63.9863 152.497 63.9863ZM159.672 65.5556C159.135 65.5556 158.672 65.4803 158.282 65.3298C157.896 65.1754 157.591 64.963 157.367 64.6928C157.143 64.4187 157.01 64.1021 156.968 63.7431V63.7315H158.398L158.404 63.7431C158.481 63.9632 158.626 64.1427 158.838 64.2817C159.05 64.4206 159.336 64.4901 159.695 64.4901C159.934 64.4901 160.145 64.4573 160.326 64.3917C160.508 64.3222 160.651 64.2276 160.755 64.1079C160.859 63.9883 160.911 63.8493 160.911 63.691V63.6794C160.911 63.4941 160.836 63.3397 160.685 63.2162C160.535 63.0888 160.286 62.9865 159.938 62.9093L158.913 62.6776C158.512 62.5888 158.18 62.4653 157.917 62.307C157.655 62.1487 157.458 61.9538 157.327 61.7222C157.199 61.4905 157.136 61.2203 157.136 60.9114V60.9057C157.136 60.5235 157.242 60.1876 157.454 59.8981C157.67 59.6085 157.969 59.3827 158.352 59.2206C158.734 59.0584 159.174 58.9773 159.672 58.9773C160.185 58.9773 160.627 59.0546 160.998 59.209C161.369 59.3634 161.658 59.5757 161.867 59.846C162.075 60.1162 162.195 60.4231 162.226 60.7667V60.7783H160.871L160.865 60.7609C160.811 60.5601 160.681 60.3903 160.477 60.2513C160.276 60.1085 160.006 60.037 159.666 60.037C159.454 60.037 159.263 60.0699 159.093 60.1355C158.927 60.2011 158.796 60.2938 158.699 60.4134C158.606 60.5293 158.56 60.6663 158.56 60.8246V60.8304C158.56 60.9539 158.591 61.062 158.653 61.1547C158.718 61.2473 158.821 61.3284 158.96 61.3979C159.099 61.4674 159.282 61.5291 159.51 61.5832L160.535 61.809C161.156 61.948 161.616 62.1545 161.913 62.4286C162.21 62.7027 162.359 63.0714 162.359 63.5347V63.5462C162.359 63.9477 162.243 64.299 162.011 64.6001C161.78 64.9013 161.461 65.1368 161.056 65.3066C160.651 65.4726 160.189 65.5556 159.672 65.5556Z" fill="#F0F0F0" fill-opacity="0.9"/>
<path d="M70.698 86.7081H71.5239L71.4377 88.5778H70.7841L70.698 86.7081ZM70.6929 90.4424L70.7841 88.5778H71.4377L71.5239 90.4424H70.6929ZM69.3046 87.9647L69.7201 87.3212L71.2705 88.3245L70.9412 88.8312L69.3046 87.9647ZM72.9071 87.9647L71.2705 88.8312L70.9412 88.3194L72.4967 87.3162L72.9071 87.9647ZM72.9071 89.1859L72.4967 89.8344L70.9412 88.8312L71.2705 88.3245L72.9071 89.1859ZM69.3046 89.1859L70.9412 88.3245L71.2705 88.8312L69.7201 89.8344L69.3046 89.1859ZM75.6433 86.7081H76.4692L76.383 88.5778H75.7294L75.6433 86.7081ZM75.6382 90.4424L75.7294 88.5778H76.383L76.4692 90.4424H75.6382ZM74.2499 87.9647L74.6653 87.3212L76.2158 88.3245L75.8865 88.8312L74.2499 87.9647ZM77.8524 87.9647L76.2158 88.8312L75.8865 88.3194L77.442 87.3162L77.8524 87.9647ZM77.8524 89.1859L77.442 89.8344L75.8865 88.8312L76.2158 88.3245L77.8524 89.1859ZM74.2499 89.1859L75.8865 88.3245L76.2158 88.8312L74.6653 89.8344L74.2499 89.1859ZM80.5885 86.7081H81.4144L81.3283 88.5778H80.6747L80.5885 86.7081ZM80.5835 90.4424L80.6747 88.5778H81.3283L81.4144 90.4424H80.5835ZM79.1951 87.9647L79.6106 87.3212L81.1611 88.3245L80.8318 88.8312L79.1951 87.9647ZM82.7977 87.9647L81.1611 88.8312L80.8318 88.3194L82.3873 87.3162L82.7977 87.9647ZM82.7977 89.1859L82.3873 89.8344L80.8318 88.8312L81.1611 88.3245L82.7977 89.1859ZM79.1951 89.1859L80.8318 88.3245L81.1611 88.8312L79.6106 89.8344L79.1951 89.1859ZM85.5338 86.7081H86.3597L86.2736 88.5778H85.62L85.5338 86.7081ZM85.5288 90.4424L85.62 88.5778H86.2736L86.3597 90.4424H85.5288ZM84.1404 87.9647L84.5559 87.3212L86.1064 88.3245L85.777 88.8312L84.1404 87.9647ZM87.743 87.9647L86.1064 88.8312L85.777 88.3194L87.3326 87.3162L87.743 87.9647ZM87.743 89.1859L87.3326 89.8344L85.777 88.8312L86.1064 88.3245L87.743 89.1859ZM84.1404 89.1859L85.777 88.3245L86.1064 88.8312L84.5559 89.8344L84.1404 89.1859ZM93.3064 86.7081H94.1323L94.0462 88.5778H93.3926L93.3064 86.7081ZM93.3014 90.4424L93.3926 88.5778H94.0462L94.1323 90.4424H93.3014ZM91.913 87.9647L92.3285 87.3212L93.879 88.3245L93.5497 88.8312L91.913 87.9647ZM95.5156 87.9647L93.879 88.8312L93.5497 88.3194L95.1052 87.3162L95.5156 87.9647ZM95.5156 89.1859L95.1052 89.8344L93.5497 88.8312L93.879 88.3245L95.5156 89.1859ZM91.913 89.1859L93.5497 88.3245L93.879 88.8312L92.3285 89.8344L91.913 89.1859ZM98.2517 86.7081H99.0776L98.9915 88.5778H98.3379L98.2517 86.7081ZM98.2467 90.4424L98.3379 88.5778H98.9915L99.0776 90.4424H98.2467ZM96.8583 87.9647L97.2738 87.3212L98.8243 88.3245L98.4949 88.8312L96.8583 87.9647ZM100.461 87.9647L98.8243 88.8312L98.4949 88.3194L100.05 87.3162L100.461 87.9647ZM100.461 89.1859L100.05 89.8344L98.4949 88.8312L98.8243 88.3245L100.461 89.1859ZM96.8583 89.1859L98.4949 88.3245L98.8243 88.8312L97.2738 89.8344L96.8583 89.1859ZM103.197 86.7081H104.023L103.937 88.5778H103.283L103.197 86.7081ZM103.192 90.4424L103.283 88.5778H103.937L104.023 90.4424H103.192ZM101.804 87.9647L102.219 87.3212L103.77 88.3245L103.44 88.8312L101.804 87.9647ZM105.406 87.9647L103.77 88.8312L103.44 88.3194L104.996 87.3162L105.406 87.9647ZM105.406 89.1859L104.996 89.8344L103.44 88.8312L103.77 88.3245L105.406 89.1859ZM101.804 89.1859L103.44 88.3245L103.77 88.8312L102.219 89.8344L101.804 89.1859ZM108.142 86.7081H108.968L108.882 88.5778H108.228L108.142 86.7081ZM108.137 90.4424L108.228 88.5778H108.882L108.968 90.4424H108.137ZM106.749 87.9647L107.164 87.3212L108.715 88.3245L108.386 88.8312L106.749 87.9647ZM110.351 87.9647L108.715 88.8312L108.386 88.3194L109.941 87.3162L110.351 87.9647ZM110.351 89.1859L109.941 89.8344L108.386 88.8312L108.715 88.3245L110.351 89.1859ZM106.749 89.1859L108.386 88.3245L108.715 88.8312L107.164 89.8344L106.749 89.1859ZM115.915 86.7081H116.741L116.655 88.5778H116.001L115.915 86.7081ZM115.91 90.4424L116.001 88.5778H116.655L116.741 90.4424H115.91ZM114.522 87.9647L114.937 87.3212L116.487 88.3245L116.158 88.8312L114.522 87.9647ZM118.124 87.9647L116.487 88.8312L116.158 88.3194L117.714 87.3162L118.124 87.9647ZM118.124 89.1859L117.714 89.8344L116.158 88.8312L116.487 88.3245L118.124 89.1859ZM114.522 89.1859L116.158 88.3245L116.487 88.8312L114.937 89.8344L114.522 89.1859ZM120.86 86.7081H121.686L121.6 88.5778H120.946L120.86 86.7081ZM120.855 90.4424L120.946 88.5778H121.6L121.686 90.4424H120.855ZM119.467 87.9647L119.882 87.3212L121.433 88.3245L121.103 88.8312L119.467 87.9647ZM123.069 87.9647L121.433 88.8312L121.103 88.3194L122.659 87.3162L123.069 87.9647ZM123.069 89.1859L122.659 89.8344L121.103 88.8312L121.433 88.3245L123.069 89.1859ZM119.467 89.1859L121.103 88.3245L121.433 88.8312L119.882 89.8344L119.467 89.1859ZM125.805 86.7081H126.631L126.545 88.5778H125.892L125.805 86.7081ZM125.8 90.4424L125.892 88.5778H126.545L126.631 90.4424H125.8ZM124.412 87.9647L124.828 87.3212L126.378 88.3245L126.049 88.8312L124.412 87.9647ZM128.015 87.9647L126.378 88.8312L126.049 88.3194L127.604 87.3162L128.015 87.9647ZM128.015 89.1859L127.604 89.8344L126.049 88.8312L126.378 88.3245L128.015 89.1859ZM124.412 89.1859L126.049 88.3245L126.378 88.8312L124.828 89.8344L124.412 89.1859ZM130.751 86.7081H131.577L131.491 88.5778H130.837L130.751 86.7081ZM130.746 90.4424L130.837 88.5778H131.491L131.577 90.4424H130.746ZM129.357 87.9647L129.773 87.3212L131.323 88.3245L130.994 88.8312L129.357 87.9647ZM132.96 87.9647L131.323 88.8312L130.994 88.3194L132.55 87.3162L132.96 87.9647ZM132.96 89.1859L132.55 89.8344L130.994 88.8312L131.323 88.3245L132.96 89.1859ZM129.357 89.1859L130.994 88.3245L131.323 88.8312L129.773 89.8344L129.357 89.1859ZM139.826 94.0855C139.305 94.0855 138.851 93.9977 138.463 93.8221C138.074 93.643 137.767 93.3981 137.54 93.0874C137.314 92.7766 137.182 92.4202 137.145 92.0182L137.14 91.9524H138.235L138.24 92.0081C138.263 92.2277 138.343 92.4219 138.478 92.5908C138.613 92.7597 138.795 92.8931 139.025 92.9911C139.258 93.0857 139.525 93.133 139.826 93.133C140.126 93.133 140.388 93.0823 140.611 92.981C140.834 92.8762 141.008 92.7327 141.133 92.5503C141.258 92.3645 141.32 92.1534 141.32 91.9169V91.9068C141.32 91.4947 141.18 91.1788 140.9 90.9593C140.619 90.7363 140.236 90.6248 139.75 90.6248H138.863V89.7331H139.714C139.994 89.7331 140.239 89.6841 140.449 89.5861C140.658 89.4848 140.822 89.3463 140.94 89.1707C141.059 88.995 141.118 88.794 141.118 88.5677V88.5576C141.118 88.3211 141.067 88.1201 140.966 87.9546C140.864 87.7857 140.716 87.6573 140.52 87.5695C140.327 87.4783 140.092 87.4327 139.815 87.4327C139.545 87.4327 139.305 87.4783 139.096 87.5695C138.887 87.6607 138.719 87.7908 138.594 87.9597C138.469 88.1252 138.395 88.3245 138.371 88.5576L138.366 88.6032H137.292L137.297 88.5525C137.338 88.137 137.466 87.7773 137.682 87.4732C137.902 87.1658 138.192 86.9277 138.554 86.7588C138.919 86.5865 139.339 86.5004 139.815 86.5004C140.302 86.5004 140.726 86.5815 141.087 86.7436C141.449 86.9057 141.729 87.1304 141.928 87.4175C142.128 87.7013 142.227 88.0323 142.227 88.4106V88.4208C142.227 88.7248 142.16 88.9933 142.025 89.2264C141.893 89.4561 141.71 89.6486 141.477 89.804C141.248 89.956 140.984 90.0624 140.687 90.1232V90.1486C141.224 90.1925 141.656 90.3698 141.984 90.6806C142.312 90.9914 142.476 91.4035 142.476 91.9169V91.927C142.476 92.3459 142.362 92.7192 142.136 93.0468C141.91 93.3711 141.597 93.6261 141.199 93.8119C140.804 93.9943 140.346 94.0855 139.826 94.0855ZM143.915 93.9487V93.1735L146.347 90.6299C146.671 90.2921 146.923 90.0151 147.102 89.7989C147.281 89.5794 147.406 89.3835 147.477 89.2112C147.551 89.0389 147.588 88.8531 147.588 88.6538V88.6437C147.588 88.4039 147.536 88.1911 147.431 88.0053C147.33 87.8161 147.183 87.6692 146.99 87.5644C146.798 87.4564 146.568 87.4023 146.301 87.4023C146.031 87.4023 145.793 87.458 145.587 87.5695C145.381 87.681 145.22 87.8364 145.105 88.0357C144.99 88.235 144.933 88.468 144.933 88.7349V88.7552L143.859 88.7501L143.854 88.74C143.857 88.2941 143.965 87.9005 144.178 87.5594C144.391 87.2148 144.686 86.9463 145.065 86.7537C145.443 86.5578 145.877 86.4599 146.367 86.4599C146.82 86.4599 147.223 86.5494 147.578 86.7284C147.936 86.9041 148.218 87.149 148.424 87.4631C148.63 87.7739 148.733 88.1302 148.733 88.5322V88.5474C148.733 88.8244 148.683 89.093 148.581 89.3531C148.48 89.6132 148.304 89.8986 148.054 90.2094C147.808 90.5201 147.463 90.8951 147.021 91.3342L145.176 93.1735L145.47 92.6617V93.1735L145.181 92.9759H148.85V93.9487H143.915ZM152.868 94.1261C152.391 94.1261 151.969 94.0349 151.601 93.8525C151.233 93.6701 150.939 93.4218 150.719 93.1076C150.5 92.7901 150.371 92.4354 150.334 92.0436L150.329 91.9777H151.398L151.403 92.0182C151.437 92.2311 151.518 92.4253 151.647 92.6009C151.778 92.7766 151.951 92.9151 152.163 93.0164C152.376 93.1178 152.614 93.1684 152.878 93.1684C153.179 93.1684 153.444 93.1026 153.673 92.9708C153.903 92.8357 154.082 92.6516 154.211 92.4185C154.342 92.1855 154.408 91.9169 154.408 91.6129V91.6028C154.408 91.3021 154.342 91.0353 154.211 90.8022C154.079 90.5691 153.9 90.3884 153.673 90.26C153.447 90.1283 153.185 90.0624 152.888 90.0624C152.668 90.0624 152.464 90.0962 152.275 90.1638C152.089 90.2279 151.924 90.3259 151.778 90.4576C151.714 90.5184 151.653 90.5843 151.596 90.6552C151.539 90.7228 151.488 90.7988 151.444 90.8833H150.461L150.826 86.6372H155.082V87.5999H151.723L151.5 89.9307H151.581C151.685 89.7652 151.816 89.625 151.971 89.5101C152.13 89.3953 152.309 89.3075 152.508 89.2467C152.707 89.1859 152.918 89.1554 153.141 89.1554C153.601 89.1554 154.006 89.2602 154.357 89.4696C154.712 89.679 154.991 89.9662 155.193 90.331C155.396 90.6958 155.497 91.113 155.497 91.5825V91.5926C155.497 92.0892 155.384 92.5283 155.158 92.91C154.935 93.2917 154.626 93.5907 154.231 93.8069C153.839 94.0197 153.385 94.1261 152.868 94.1261ZM160.276 93.9487V92.4996H156.708V91.5318C156.901 91.2008 157.097 90.8681 157.296 90.5336C157.499 90.1992 157.702 89.8648 157.904 89.5304C158.11 89.196 158.316 88.8666 158.522 88.5424C158.728 88.2147 158.935 87.8921 159.141 87.5746C159.347 87.2537 159.549 86.9412 159.749 86.6372H161.375V91.5318H162.383V92.4996H161.375V93.9487H160.276ZM157.803 91.5521H160.291V87.5999H160.225C160.066 87.8364 159.906 88.0813 159.744 88.3346C159.581 88.5846 159.416 88.8413 159.247 89.1048C159.081 89.3683 158.916 89.6334 158.75 89.9003C158.585 90.1671 158.423 90.434 158.264 90.7009C158.105 90.9643 157.952 91.2244 157.803 91.4812V91.5521Z" fill="#F0F0F0" fill-opacity="0.9"/>
<ellipse cx="7.14212" cy="7.01118" rx="7.14212" ry="7.01118" transform="matrix(-1 0 0 1 126.939 105.09)" fill="#C1C3C8"/>
<path d="M105.169 112.101C105.169 115.762 108.195 118.741 111.941 118.741C115.687 118.741 118.712 115.762 118.712 112.101C118.712 108.44 115.687 105.46 111.941 105.46C108.195 105.46 105.169 108.44 105.169 112.101Z" stroke="#C1C3C8" stroke-width="0.741214"/>
<path d="M80.7234 43.7991C79.7506 43.7991 79.1947 43.22 79.1947 42.2125V35.9932H78.1523C77.8281 35.9932 77.5733 35.7384 77.5733 35.4141C77.5733 35.0783 77.8281 34.8351 78.1523 34.8351H79.1947V29.1138C79.1947 27.8746 80.0633 27.0871 81.3141 27.0871C82.4606 27.0871 83.1555 27.6893 83.5609 28.6737L86.2594 34.8351H87.985V28.6737C87.985 27.6661 88.5409 27.0871 89.5138 27.0871C90.4866 27.0871 91.0425 27.6661 91.0425 28.6737V34.8351H92.1891C92.5134 34.8351 92.7566 35.0783 92.7566 35.4141C92.7566 35.7384 92.5134 35.9932 92.1891 35.9932H91.0425V41.7724C91.0425 43.0116 90.1739 43.7991 88.9231 43.7991C87.7765 43.7991 87.0816 43.1969 86.6763 42.2125L83.9431 35.9932H82.2522V42.2125C82.2522 43.22 81.6963 43.7991 80.7234 43.7991ZM82.2522 32.3566V34.8351H83.4335L82.3448 32.3566H82.2522ZM87.8923 38.5527H87.985V35.9932H86.7689L87.8923 38.5527ZM100.088 44.1118C97.3197 44.1118 95.2929 42.8379 94.598 41.3438C94.4359 41.0196 94.3664 40.73 94.3664 40.4289C94.3664 39.653 94.8876 39.0623 95.8141 39.0623C96.5205 39.0623 96.9143 39.375 97.4355 39.9541C98.2114 40.8922 98.9527 41.3438 100.215 41.3438C102.682 41.3438 103.817 38.9928 103.828 35.5068V35.3215H103.759C103.157 36.9313 101.512 38.0315 99.3117 38.0315C96.2194 38.0315 93.7642 35.8311 93.7642 32.5767C93.7642 29.1138 96.4742 26.647 100.203 26.647C102.867 26.647 104.975 27.8862 106.191 30.3414C106.828 31.627 107.175 33.2831 107.175 35.2404C107.175 40.7995 104.523 44.1118 100.088 44.1118ZM100.215 35.4373C101.987 35.4373 103.319 34.1981 103.319 32.4956C103.319 30.77 101.975 29.4381 100.25 29.4381C98.5241 29.4381 97.1691 30.7468 97.1691 32.4377C97.1691 34.1865 98.4662 35.4373 100.215 35.4373ZM115.943 44.1118C111.704 44.1118 109.121 40.7648 109.121 35.3562C109.121 29.9593 111.727 26.647 115.943 26.647C120.158 26.647 122.753 29.9477 122.753 35.3446C122.753 40.7416 120.181 44.1118 115.943 44.1118ZM115.943 41.3091C118.004 41.3091 119.197 39.1897 119.197 35.3562C119.197 31.5459 117.993 29.4497 115.943 29.4497C113.904 29.4497 112.677 31.5575 112.677 35.3562C112.677 39.1897 113.881 41.3091 115.943 41.3091ZM131.508 44.1118C127.269 44.1118 124.687 40.7648 124.687 35.3562C124.687 29.9593 127.293 26.647 131.508 26.647C135.724 26.647 138.318 29.9477 138.318 35.3446C138.318 40.7416 135.747 44.1118 131.508 44.1118ZM131.508 41.3091C133.57 41.3091 134.763 39.1897 134.763 35.3562C134.763 31.5459 133.558 29.4497 131.508 29.4497C129.47 29.4497 128.242 31.5575 128.242 35.3562C128.242 39.1897 129.447 41.3091 131.508 41.3091ZM142.429 43.9613C141.329 43.9613 140.681 43.2895 140.681 42.143V28.6274C140.681 27.4692 141.329 26.7975 142.429 26.7975C143.53 26.7975 144.178 27.4692 144.178 28.6274V34.4181H144.283L150.571 27.5503C151.058 27.0176 151.498 26.7975 152.077 26.7975C153.003 26.7975 153.721 27.504 153.721 28.4073C153.721 28.8938 153.548 29.276 153.108 29.7392L148.498 34.5687L153.513 40.6605C154.034 41.3091 154.266 41.8071 154.266 42.2819C154.266 43.2316 153.536 43.9728 152.575 43.9728C151.857 43.9728 151.37 43.7065 150.826 43.0116L145.846 36.885L144.178 38.6338V42.143C144.178 43.2895 143.53 43.9613 142.429 43.9613Z" fill="#F0F0F0" fill-opacity="0.9"/>
<defs>
<filter id="filter0_b_275_3111" x="-29.6486" y="-29.3578" width="290.297" height="192.141" filterUnits="userSpaceOnUse" color-interpolation-filters="sRGB">
<feFlood flood-opacity="0" result="BackgroundImageFix"/>
<feGaussianBlur in="BackgroundImageFix" stdDeviation="14.8243"/>
<feComposite in2="SourceAlpha" operator="in" result="effect1_backgroundBlur_275_3111"/>
<feBlend mode="normal" in="SourceGraphic" in2="effect1_backgroundBlur_275_3111" result="shape"/>
</filter>
</defs>
</svg>
