<svg width="231" height="133" viewBox="0 0 231 133" fill="none" xmlns="http://www.w3.org/2000/svg">
<g filter="url(#filter0_b_280_3225)">
<rect width="231" height="132.843" rx="14.7604" fill="#808B96" fill-opacity="0.2"/>
</g>
<path d="M80.9861 65.345C80.3826 65.345 79.8406 65.2451 79.3601 65.0452C78.8796 64.8415 78.4684 64.5493 78.1262 64.1688C77.788 63.7883 77.5285 63.3308 77.3479 62.7965C77.1672 62.2584 77.0769 61.653 77.0769 60.9803V60.9688C77.0769 60.0809 77.2364 59.3121 77.5554 58.6625C77.8745 58.009 78.3242 57.5036 78.9046 57.1461C79.4889 56.7886 80.175 56.6099 80.963 56.6099C81.6049 56.6099 82.1777 56.7252 82.6812 56.9558C83.1886 57.1826 83.6037 57.5016 83.9266 57.9129C84.2495 58.3204 84.4551 58.7951 84.5436 59.3371L84.5551 59.3947H83.079L83.0618 59.3371C82.9272 58.8797 82.6774 58.526 82.3122 58.2762C81.947 58.0225 81.4973 57.8956 80.963 57.8956C80.4787 57.8956 80.0578 58.0206 79.7003 58.2704C79.3467 58.5203 79.0738 58.8739 78.8816 59.3313C78.6894 59.7887 78.5933 60.3307 78.5933 60.9573V60.9688C78.5933 61.4454 78.649 61.874 78.7605 62.2546C78.872 62.6351 79.0315 62.9599 79.239 63.229C79.4505 63.498 79.7041 63.7037 80.0001 63.8459C80.2999 63.9881 80.6363 64.0593 81.0091 64.0593C81.432 64.0593 81.8029 63.9766 82.1219 63.8113C82.4448 63.646 82.6966 63.4154 82.8772 63.1194C83.0618 62.8235 83.1578 62.4794 83.1655 62.0874V61.9144H81.1706V60.7785H84.6185V61.8164C84.6185 62.3545 84.5339 62.8408 84.3648 63.2751C84.1957 63.7095 83.9516 64.0804 83.6326 64.3879C83.3174 64.6954 82.9349 64.9318 82.4852 65.0971C82.0393 65.2624 81.5396 65.345 80.9861 65.345ZM87.8877 65.2412C87.4918 65.2412 87.1362 65.1644 86.821 65.0106C86.5097 64.8569 86.2637 64.6397 86.083 64.3591C85.9062 64.0746 85.8178 63.7402 85.8178 63.3558V63.3443C85.8178 62.9714 85.91 62.6505 86.0945 62.3814C86.2791 62.1085 86.55 61.8952 86.9075 61.7414C87.265 61.5877 87.6994 61.4973 88.2106 61.4704L90.54 61.3263V62.2719L88.4124 62.4102C88.0088 62.4333 87.7109 62.5179 87.5187 62.6639C87.3265 62.81 87.2304 63.0137 87.2304 63.2751V63.2866C87.2304 63.5557 87.3323 63.7652 87.536 63.9151C87.7436 64.065 88.0069 64.14 88.3259 64.14C88.6142 64.14 88.8717 64.0823 89.0985 63.967C89.3253 63.8517 89.504 63.696 89.6347 63.5C89.7654 63.3001 89.8308 63.0752 89.8308 62.8254V60.8304C89.8308 60.5152 89.7308 60.275 89.531 60.1097C89.3311 59.9406 89.0351 59.856 88.643 59.856C88.3163 59.856 88.0491 59.9137 87.8416 60.029C87.634 60.1404 87.4937 60.3 87.4207 60.5075L87.4149 60.5306H86.06L86.0657 60.4787C86.1118 60.1251 86.2502 59.8156 86.4809 59.5504C86.7115 59.2852 87.0171 59.0795 87.3976 58.9335C87.7782 58.7874 88.2164 58.7144 88.7122 58.7144C89.258 58.7144 89.7193 58.7989 90.096 58.9681C90.4727 59.1334 90.7591 59.3755 90.9551 59.6946C91.1511 60.0098 91.2492 60.3884 91.2492 60.8304V65.1375H89.8308V64.2726H89.7328C89.6174 64.4725 89.4675 64.6454 89.283 64.7915C89.1024 64.9376 88.8948 65.049 88.6603 65.1259C88.4258 65.2028 88.1683 65.2412 87.8877 65.2412ZM95.2448 65.2412C94.7221 65.2412 94.2666 65.1105 93.8783 64.8492C93.4901 64.5839 93.1903 64.2072 92.9789 63.7191C92.7675 63.2309 92.6618 62.6562 92.6618 61.9951V61.9836C92.6618 61.3147 92.7656 60.7382 92.9731 60.2538C93.1845 59.7657 93.4824 59.3909 93.8668 59.1295C94.255 58.8643 94.7144 58.7317 95.2448 58.7317C95.5331 58.7317 95.8022 58.7778 96.052 58.8701C96.3019 58.9585 96.521 59.0853 96.7093 59.2506C96.9015 59.4159 97.0514 59.6119 97.1591 59.8387H97.2629V56.3965H98.6928V65.1375H97.2629V64.1515H97.1591C97.0438 64.3783 96.8919 64.5743 96.7036 64.7396C96.5191 64.9011 96.3038 65.026 96.0578 65.1144C95.8118 65.199 95.5408 65.2412 95.2448 65.2412ZM95.6946 64.0304C96.0213 64.0304 96.3019 63.9497 96.5364 63.7883C96.7747 63.623 96.9573 63.3885 97.0841 63.0848C97.2148 62.7773 97.2802 62.4141 97.2802 61.9951V61.9836C97.2802 61.5607 97.2148 61.1975 97.0841 60.8938C96.9573 60.5902 96.7747 60.3557 96.5364 60.1904C96.3019 60.0251 96.0213 59.9425 95.6946 59.9425C95.3717 59.9425 95.0911 60.0251 94.8528 60.1904C94.6183 60.3519 94.4376 60.5863 94.3108 60.8938C94.1839 61.1975 94.1205 61.5607 94.1205 61.9836V61.9951C94.1205 62.4179 94.1839 62.7812 94.3108 63.0848C94.4376 63.3885 94.6183 63.623 94.8528 63.7883C95.0872 63.9497 95.3678 64.0304 95.6946 64.0304ZM103.213 67.3515C102.66 67.3515 102.181 67.2785 101.777 67.1324C101.378 66.9863 101.063 66.7788 100.832 66.5097C100.601 66.2445 100.461 65.9351 100.411 65.5814L100.417 65.5641H101.847L101.858 65.5814C101.904 65.7813 102.045 65.9447 102.279 66.0715C102.517 66.2022 102.836 66.2675 103.236 66.2675C103.728 66.2675 104.109 66.158 104.378 65.9389C104.651 65.7198 104.787 65.4084 104.787 65.0048V63.794H104.689C104.57 64.0208 104.414 64.213 104.222 64.3706C104.034 64.5282 103.817 64.6474 103.571 64.7281C103.328 64.805 103.061 64.8434 102.769 64.8434C102.239 64.8434 101.779 64.7165 101.391 64.4629C101.003 64.2053 100.703 63.8498 100.492 63.3962C100.284 62.9426 100.18 62.4179 100.18 61.8221V61.8106C100.18 61.2033 100.286 60.669 100.497 60.2077C100.709 59.7465 101.009 59.3851 101.397 59.1237C101.789 58.8624 102.256 58.7317 102.798 58.7317C103.09 58.7317 103.357 58.7778 103.599 58.8701C103.845 58.9623 104.061 59.093 104.245 59.2621C104.434 59.4313 104.587 59.635 104.706 59.8733H104.781V58.8355H106.217V64.9818C106.217 65.4661 106.094 65.8851 105.848 66.2387C105.606 66.5962 105.26 66.871 104.81 67.0632C104.361 67.2554 103.828 67.3515 103.213 67.3515ZM103.213 63.7018C103.544 63.7018 103.828 63.623 104.066 63.4654C104.305 63.3039 104.487 63.0829 104.614 62.8023C104.745 62.5217 104.81 62.195 104.81 61.8221V61.8106C104.81 61.4377 104.745 61.111 104.614 60.8304C104.487 60.546 104.305 60.325 104.066 60.1674C103.828 60.0059 103.544 59.9252 103.213 59.9252C102.879 59.9252 102.594 60.0059 102.36 60.1674C102.129 60.325 101.952 60.546 101.829 60.8304C101.71 61.111 101.651 61.4377 101.651 61.8106V61.8221C101.651 62.1911 101.71 62.5179 101.829 62.8023C101.952 63.0829 102.129 63.3039 102.36 63.4654C102.594 63.623 102.879 63.7018 103.213 63.7018ZM110.674 65.2643C110.047 65.2643 109.509 65.1317 109.06 64.8665C108.614 64.6012 108.27 64.2245 108.028 63.7364C107.785 63.2482 107.664 62.6697 107.664 62.0009V61.9951C107.664 61.334 107.783 60.7574 108.022 60.2654C108.264 59.7734 108.606 59.3928 109.048 59.1237C109.49 58.8508 110.009 58.7144 110.605 58.7144C111.204 58.7144 111.72 58.847 112.15 59.1122C112.584 59.3736 112.919 59.7407 113.153 60.2135C113.388 60.6863 113.505 61.2398 113.505 61.874V62.3468H108.385V61.3839H112.802L112.121 62.2834V61.7126C112.121 61.2936 112.058 60.9457 111.931 60.669C111.804 60.3922 111.627 60.1847 111.401 60.0463C111.178 59.9079 110.918 59.8387 110.622 59.8387C110.326 59.8387 110.063 59.9117 109.832 60.0578C109.605 60.2 109.425 60.4114 109.29 60.692C109.16 60.9688 109.094 61.309 109.094 61.7126V62.2892C109.094 62.6774 109.16 63.0099 109.29 63.2866C109.421 63.5596 109.605 63.771 109.844 63.9209C110.086 64.0669 110.372 64.14 110.703 64.14C110.96 64.14 111.181 64.1035 111.366 64.0304C111.554 63.9535 111.706 63.8632 111.821 63.7594C111.937 63.6518 112.017 63.5499 112.064 63.4538L112.081 63.4135H113.442L113.43 63.4654C113.38 63.6691 113.288 63.8767 113.153 64.0881C113.023 64.2956 112.844 64.4898 112.617 64.6704C112.394 64.8472 112.121 64.9914 111.798 65.1029C111.475 65.2105 111.101 65.2643 110.674 65.2643ZM117.42 65.1663C116.697 65.1663 116.177 65.0337 115.857 64.7684C115.538 64.5032 115.379 64.0689 115.379 63.4654V59.9483H114.399V58.8355H115.379V57.2902H116.838V58.8355H118.164V59.9483H116.838V63.1252C116.838 63.4365 116.903 63.6653 117.034 63.8113C117.168 63.9535 117.383 64.0247 117.679 64.0247C117.783 64.0247 117.868 64.0227 117.933 64.0189C118.002 64.0112 118.079 64.0035 118.164 63.9958V65.1029C118.064 65.1221 117.949 65.1375 117.818 65.149C117.691 65.1605 117.558 65.1663 117.42 65.1663ZM126.455 65.345C125.851 65.345 125.31 65.2451 124.829 65.0452C124.349 64.8415 123.937 64.5493 123.595 64.1688C123.257 63.7883 122.997 63.3308 122.817 62.7965C122.636 62.2584 122.546 61.653 122.546 60.9803V60.9688C122.546 60.0809 122.705 59.3121 123.024 58.6625C123.343 58.009 123.793 57.5036 124.374 57.1461C124.958 56.7886 125.644 56.6099 126.432 56.6099C127.074 56.6099 127.647 56.7252 128.15 56.9558C128.657 57.1826 129.073 57.5016 129.396 57.9129C129.718 58.3204 129.924 58.7951 130.012 59.3371L130.024 59.3947H128.548L128.531 59.3371C128.396 58.8797 128.146 58.526 127.781 58.2762C127.416 58.0225 126.966 57.8956 126.432 57.8956C125.948 57.8956 125.527 58.0206 125.169 58.2704C124.816 58.5203 124.543 58.8739 124.35 59.3313C124.158 59.7887 124.062 60.3307 124.062 60.9573V60.9688C124.062 61.4454 124.118 61.874 124.229 62.2546C124.341 62.6351 124.5 62.9599 124.708 63.229C124.919 63.498 125.173 63.7037 125.469 63.8459C125.769 63.9881 126.105 64.0593 126.478 64.0593C126.901 64.0593 127.272 63.9766 127.591 63.8113C127.914 63.646 128.165 63.4154 128.346 63.1194C128.531 62.8235 128.627 62.4794 128.634 62.0874V61.9144H126.639V60.7785H130.087V61.8164C130.087 62.3545 130.003 62.8408 129.834 63.2751C129.665 63.7095 129.421 64.0804 129.101 64.3879C128.786 64.6954 128.404 64.9318 127.954 65.0971C127.508 65.2624 127.008 65.345 126.455 65.345ZM134.394 65.2643C133.768 65.2643 133.228 65.1336 132.774 64.8722C132.321 64.607 131.971 64.2303 131.725 63.7421C131.483 63.254 131.362 62.6697 131.362 61.9893V61.9778C131.362 61.3051 131.485 60.7247 131.731 60.2365C131.977 59.7445 132.325 59.3678 132.774 59.1065C133.228 58.8451 133.768 58.7144 134.394 58.7144C135.021 58.7144 135.559 58.8451 136.009 59.1065C136.462 59.3678 136.812 59.7426 137.058 60.2308C137.304 60.7189 137.427 61.3013 137.427 61.9778V61.9893C137.427 62.6697 137.304 63.254 137.058 63.7421C136.816 64.2303 136.468 64.607 136.015 64.8722C135.565 65.1336 135.025 65.2643 134.394 65.2643ZM134.394 64.0996C134.725 64.0996 135.006 64.017 135.236 63.8517C135.471 63.6826 135.649 63.4423 135.772 63.131C135.895 62.8158 135.957 62.4371 135.957 61.9951V61.9836C135.957 61.5377 135.895 61.1591 135.772 60.8477C135.649 60.5325 135.471 60.2923 135.236 60.127C135.006 59.9579 134.725 59.8733 134.394 59.8733C134.064 59.8733 133.781 59.9579 133.547 60.127C133.312 60.2923 133.134 60.5325 133.011 60.8477C132.888 61.1591 132.826 61.5377 132.826 61.9836V61.9951C132.826 62.4371 132.888 62.8158 133.011 63.131C133.134 63.4462 133.31 63.6864 133.541 63.8517C133.776 64.017 134.06 64.0996 134.394 64.0996ZM140.587 65.2412C140.191 65.2412 139.835 65.1644 139.52 65.0106C139.209 64.8569 138.963 64.6397 138.782 64.3591C138.605 64.0746 138.517 63.7402 138.517 63.3558V63.3443C138.517 62.9714 138.609 62.6505 138.794 62.3814C138.978 62.1085 139.249 61.8952 139.607 61.7414C139.964 61.5877 140.399 61.4973 140.91 61.4704L143.239 61.3263V62.2719L141.112 62.4102C140.708 62.4333 140.41 62.5179 140.218 62.6639C140.026 62.81 139.93 63.0137 139.93 63.2751V63.2866C139.93 63.5557 140.031 63.7652 140.235 63.9151C140.443 64.065 140.706 64.14 141.025 64.14C141.313 64.14 141.571 64.0823 141.798 63.967C142.024 63.8517 142.203 63.696 142.334 63.5C142.465 63.3001 142.53 63.0752 142.53 62.8254V60.8304C142.53 60.5152 142.43 60.275 142.23 60.1097C142.03 59.9406 141.734 59.856 141.342 59.856C141.015 59.856 140.748 59.9137 140.541 60.029C140.333 60.1404 140.193 60.3 140.12 60.5075L140.114 60.5306H138.759L138.765 60.4787C138.811 60.1251 138.949 59.8156 139.18 59.5504C139.411 59.2852 139.716 59.0795 140.097 58.9335C140.477 58.7874 140.916 58.7144 141.411 58.7144C141.957 58.7144 142.418 58.7989 142.795 58.9681C143.172 59.1334 143.458 59.3755 143.654 59.6946C143.85 60.0098 143.948 60.3884 143.948 60.8304V65.1375H142.53V64.2726H142.432C142.317 64.4725 142.167 64.6454 141.982 64.7915C141.802 64.9376 141.594 65.049 141.359 65.1259C141.125 65.2028 140.867 65.2412 140.587 65.2412ZM145.73 65.1375V56.3965H147.166V65.1375H145.73ZM151.352 65.2643C150.817 65.2643 150.356 65.1893 149.968 65.0394C149.583 64.8857 149.28 64.6743 149.057 64.4052C148.834 64.1323 148.701 63.8171 148.659 63.4596V63.4481H150.083L150.089 63.4596C150.166 63.6787 150.31 63.8574 150.521 63.9958C150.733 64.1342 151.017 64.2034 151.375 64.2034C151.613 64.2034 151.822 64.1707 152.003 64.1054C152.184 64.0362 152.326 63.942 152.43 63.8229C152.534 63.7037 152.585 63.5653 152.585 63.4077V63.3962C152.585 63.2117 152.511 63.0579 152.361 62.9349C152.211 62.8081 151.963 62.7062 151.617 62.6293L150.596 62.3987C150.197 62.3103 149.866 62.1873 149.605 62.0297C149.343 61.8721 149.147 61.678 149.016 61.4474C148.89 61.2167 148.826 60.9477 148.826 60.6401V60.6344C148.826 60.2538 148.932 59.9194 149.143 59.6311C149.359 59.3428 149.656 59.118 150.037 58.9565C150.418 58.7951 150.856 58.7144 151.352 58.7144C151.863 58.7144 152.303 58.7913 152.672 58.945C153.041 59.0988 153.329 59.3102 153.537 59.5792C153.744 59.8483 153.864 60.1539 153.894 60.496V60.5075H152.545L152.539 60.4902C152.486 60.2904 152.357 60.1212 152.153 59.9828C151.953 59.8406 151.684 59.7695 151.346 59.7695C151.134 59.7695 150.944 59.8022 150.775 59.8675C150.61 59.9329 150.479 60.0251 150.383 60.1443C150.291 60.2596 150.245 60.3961 150.245 60.5537V60.5594C150.245 60.6824 150.275 60.7901 150.337 60.8823C150.402 60.9746 150.504 61.0553 150.642 61.1245C150.781 61.1937 150.963 61.2552 151.19 61.309L152.211 61.5338C152.83 61.6722 153.287 61.8779 153.583 62.1508C153.879 62.4237 154.027 62.7908 154.027 63.252V63.2636C154.027 63.6633 153.912 64.0131 153.681 64.3129C153.45 64.6128 153.133 64.8472 152.73 65.0164C152.326 65.1817 151.867 65.2643 151.352 65.2643Z" fill="#F0F0F0" fill-opacity="0.9"/>
<path d="M70.6891 86.4488H71.5114L71.4257 88.3104H70.7748L70.6891 86.4488ZM70.684 90.167L70.7748 88.3104H71.4257L71.5114 90.167H70.684ZM69.3017 87.7L69.7154 87.0593L71.2592 88.0582L70.9312 88.5627L69.3017 87.7ZM72.8887 87.7L71.2592 88.5627L70.9312 88.0531L72.4801 87.0542L72.8887 87.7ZM72.8887 88.9159L72.4801 89.5616L70.9312 88.5627L71.2592 88.0582L72.8887 88.9159ZM69.3017 88.9159L70.9312 88.0582L71.2592 88.5627L69.7154 89.5616L69.3017 88.9159ZM75.6131 86.4488H76.4354L76.3496 88.3104H75.6988L75.6131 86.4488ZM75.608 90.167L75.6988 88.3104H76.3496L76.4354 90.167H75.608ZM74.2257 87.7L74.6394 87.0593L76.1831 88.0582L75.8552 88.5627L74.2257 87.7ZM77.8127 87.7L76.1831 88.5627L75.8552 88.0531L77.404 87.0542L77.8127 87.7ZM77.8127 88.9159L77.404 89.5616L75.8552 88.5627L76.1831 88.0582L77.8127 88.9159ZM74.2257 88.9159L75.8552 88.0582L76.1831 88.5627L74.6394 89.5616L74.2257 88.9159ZM80.537 86.4488H81.3594L81.2736 88.3104H80.6228L80.537 86.4488ZM80.532 90.167L80.6228 88.3104H81.2736L81.3594 90.167H80.532ZM79.1496 87.7L79.5633 87.0593L81.1071 88.0582L80.7792 88.5627L79.1496 87.7ZM82.7367 87.7L81.1071 88.5627L80.7792 88.0531L82.328 87.0542L82.7367 87.7ZM82.7367 88.9159L82.328 89.5616L80.7792 88.5627L81.1071 88.0582L82.7367 88.9159ZM79.1496 88.9159L80.7792 88.0582L81.1071 88.5627L79.5633 89.5616L79.1496 88.9159ZM85.461 86.4488H86.2833L86.1976 88.3104H85.5468L85.461 86.4488ZM85.4559 90.167L85.5468 88.3104H86.1976L86.2833 90.167H85.4559ZM84.0736 87.7L84.4873 87.0593L86.0311 88.0582L85.7032 88.5627L84.0736 87.7ZM87.6606 87.7L86.0311 88.5627L85.7032 88.0531L87.252 87.0542L87.6606 87.7ZM87.6606 88.9159L87.252 89.5616L85.7032 88.5627L86.0311 88.0582L87.6606 88.9159ZM84.0736 88.9159L85.7032 88.0582L86.0311 88.5627L84.4873 89.5616L84.0736 88.9159ZM93.2001 86.4488H94.0224L93.9367 88.3104H93.2859L93.2001 86.4488ZM93.1951 90.167L93.2859 88.3104H93.9367L94.0224 90.167H93.1951ZM91.8127 87.7L92.2264 87.0593L93.7702 88.0582L93.4423 88.5627L91.8127 87.7ZM95.3997 87.7L93.7702 88.5627L93.4423 88.0531L94.9911 87.0542L95.3997 87.7ZM95.3997 88.9159L94.9911 89.5616L93.4423 88.5627L93.7702 88.0582L95.3997 88.9159ZM91.8127 88.9159L93.4423 88.0582L93.7702 88.5627L92.2264 89.5616L91.8127 88.9159ZM98.1241 86.4488H98.9464L98.8607 88.3104H98.2098L98.1241 86.4488ZM98.119 90.167L98.2098 88.3104H98.8607L98.9464 90.167H98.119ZM96.7367 87.7L97.1504 87.0593L98.6942 88.0582L98.3662 88.5627L96.7367 87.7ZM100.324 87.7L98.6942 88.5627L98.3662 88.0531L99.9151 87.0542L100.324 87.7ZM100.324 88.9159L99.9151 89.5616L98.3662 88.5627L98.6942 88.0582L100.324 88.9159ZM96.7367 88.9159L98.3662 88.0582L98.6942 88.5627L97.1504 89.5616L96.7367 88.9159ZM103.048 86.4488H103.87L103.785 88.3104H103.134L103.048 86.4488ZM103.043 90.167L103.134 88.3104H103.785L103.87 90.167H103.043ZM101.661 87.7L102.074 87.0593L103.618 88.0582L103.29 88.5627L101.661 87.7ZM105.248 87.7L103.618 88.5627L103.29 88.0531L104.839 87.0542L105.248 87.7ZM105.248 88.9159L104.839 89.5616L103.29 88.5627L103.618 88.0582L105.248 88.9159ZM101.661 88.9159L103.29 88.0582L103.618 88.5627L102.074 89.5616L101.661 88.9159ZM107.972 86.4488H108.794L108.709 88.3104H108.058L107.972 86.4488ZM107.967 90.167L108.058 88.3104H108.709L108.794 90.167H107.967ZM106.585 87.7L106.998 87.0593L108.542 88.0582L108.214 88.5627L106.585 87.7ZM110.172 87.7L108.542 88.5627L108.214 88.0531L109.763 87.0542L110.172 87.7ZM110.172 88.9159L109.763 89.5616L108.214 88.5627L108.542 88.0582L110.172 88.9159ZM106.585 88.9159L108.214 88.0582L108.542 88.5627L106.998 89.5616L106.585 88.9159ZM115.711 86.4488H116.533L116.448 88.3104H115.797L115.711 86.4488ZM115.706 90.167L115.797 88.3104H116.448L116.533 90.167H115.706ZM114.324 87.7L114.737 87.0593L116.281 88.0582L115.953 88.5627L114.324 87.7ZM117.911 87.7L116.281 88.5627L115.953 88.0531L117.502 87.0542L117.911 87.7ZM117.911 88.9159L117.502 89.5616L115.953 88.5627L116.281 88.0582L117.911 88.9159ZM114.324 88.9159L115.953 88.0582L116.281 88.5627L114.737 89.5616L114.324 88.9159ZM120.635 86.4488H121.457L121.372 88.3104H120.721L120.635 86.4488ZM120.63 90.167L120.721 88.3104H121.372L121.457 90.167H120.63ZM119.248 87.7L119.661 87.0593L121.205 88.0582L120.877 88.5627L119.248 87.7ZM122.835 87.7L121.205 88.5627L120.877 88.0531L122.426 87.0542L122.835 87.7ZM122.835 88.9159L122.426 89.5616L120.877 88.5627L121.205 88.0582L122.835 88.9159ZM119.248 88.9159L120.877 88.0582L121.205 88.5627L119.661 89.5616L119.248 88.9159ZM125.559 86.4488H126.381L126.296 88.3104H125.645L125.559 86.4488ZM125.554 90.167L125.645 88.3104H126.296L126.381 90.167H125.554ZM124.172 87.7L124.585 87.0593L126.129 88.0582L125.801 88.5627L124.172 87.7ZM127.759 87.7L126.129 88.5627L125.801 88.0531L127.35 87.0542L127.759 87.7ZM127.759 88.9159L127.35 89.5616L125.801 88.5627L126.129 88.0582L127.759 88.9159ZM124.172 88.9159L125.801 88.0582L126.129 88.5627L124.585 89.5616L124.172 88.9159ZM130.483 86.4488H131.305L131.22 88.3104H130.569L130.483 86.4488ZM130.478 90.167L130.569 88.3104H131.22L131.305 90.167H130.478ZM129.096 87.7L129.509 87.0593L131.053 88.0582L130.725 88.5627L129.096 87.7ZM132.683 87.7L131.053 88.5627L130.725 88.0531L132.274 87.0542L132.683 87.7ZM132.683 88.9159L132.274 89.5616L130.725 88.5627L131.053 88.0582L132.683 88.9159ZM129.096 88.9159L130.725 88.0582L131.053 88.5627L129.509 89.5616L129.096 88.9159ZM138.732 93.6582V87.5436H138.651L136.82 88.8503V87.7404L138.737 86.3782H139.867V93.6582H138.732ZM144.423 86.2016C144.789 86.2016 145.141 86.2706 145.477 86.4085C145.817 86.543 146.121 86.7583 146.39 87.0542C146.659 87.3468 146.871 87.7286 147.026 88.1995C147.18 88.6703 147.258 89.2404 147.258 89.9097V89.9198C147.258 90.7405 147.143 91.4434 146.915 92.0287C146.686 92.6105 146.356 93.0578 145.926 93.3706C145.499 93.6801 144.984 93.8348 144.382 93.8348C143.952 93.8348 143.563 93.7557 143.217 93.5977C142.874 93.4396 142.588 93.221 142.359 92.9418C142.13 92.6626 141.976 92.3414 141.895 91.9782L141.88 91.9177H143.005L143.025 91.9681C143.092 92.1531 143.19 92.3129 143.318 92.4474C143.445 92.5819 143.599 92.6879 143.777 92.7652C143.955 92.8392 144.159 92.8762 144.387 92.8762C144.794 92.8762 145.125 92.7568 145.381 92.518C145.64 92.2759 145.833 91.9547 145.961 91.5544C146.089 91.1542 146.161 90.7136 146.178 90.2326C146.182 90.1822 146.183 90.1334 146.183 90.0863C146.183 90.0392 146.183 89.9938 146.183 89.9501L145.961 88.7342C145.961 88.4383 145.892 88.1709 145.754 87.9321C145.62 87.6933 145.437 87.5032 145.205 87.362C144.976 87.2207 144.719 87.1501 144.433 87.1501C144.15 87.1501 143.893 87.219 143.661 87.3569C143.432 87.4948 143.249 87.6815 143.111 87.9169C142.973 88.149 142.904 88.4113 142.904 88.704V88.7141C142.904 89.01 142.97 89.2741 143.101 89.5061C143.232 89.7382 143.412 89.9215 143.641 90.056C143.869 90.1872 144.128 90.2528 144.417 90.2528C144.71 90.2528 144.972 90.1872 145.205 90.056C145.437 89.9249 145.62 89.7466 145.754 89.5213C145.892 89.2926 145.961 89.0319 145.961 88.7393V88.7342H146.259V90.0611H146.082C145.995 90.2562 145.864 90.4378 145.689 90.6059C145.514 90.7741 145.299 90.9103 145.043 91.0146C144.791 91.1155 144.5 91.1659 144.17 91.1659C143.709 91.1659 143.299 91.0617 142.939 90.8532C142.579 90.6413 142.297 90.3537 142.092 89.9904C141.887 89.6238 141.784 89.2085 141.784 88.7443V88.7342C141.784 88.2465 141.897 87.8127 142.122 87.4326C142.351 87.0492 142.663 86.7482 143.06 86.5295C143.461 86.3109 143.915 86.2016 144.423 86.2016ZM151.309 93.7944C150.768 93.7944 150.29 93.7053 149.876 93.527C149.463 93.3488 149.138 93.1016 148.903 92.7854C148.667 92.4659 148.549 92.101 148.549 91.6906V91.6805C148.549 91.3745 148.617 91.0936 148.751 90.838C148.889 90.5824 149.079 90.3671 149.321 90.1923C149.567 90.014 149.848 89.8912 150.164 89.824V89.7987C149.757 89.681 149.429 89.4792 149.18 89.1933C148.934 88.9074 148.812 88.5711 148.812 88.1843V88.1742C148.812 87.8009 148.918 87.4696 149.13 87.1804C149.345 86.8911 149.641 86.6624 150.017 86.4942C150.394 86.3261 150.825 86.242 151.309 86.242C151.793 86.242 152.222 86.3261 152.596 86.4942C152.972 86.6624 153.267 86.8911 153.478 87.1804C153.694 87.4696 153.801 87.8009 153.801 88.1742V88.1843C153.801 88.5711 153.679 88.9074 153.433 89.1933C153.187 89.4792 152.861 89.681 152.454 89.7987V89.824C152.774 89.8912 153.053 90.014 153.292 90.1923C153.534 90.3671 153.722 90.5824 153.857 90.838C153.995 91.0936 154.064 91.3745 154.064 91.6805V91.6906C154.064 92.101 153.946 92.4659 153.71 92.7854C153.478 93.1016 153.154 93.3488 152.737 93.527C152.323 93.7053 151.847 93.7944 151.309 93.7944ZM151.309 92.8863C151.618 92.8863 151.893 92.8325 152.131 92.7249C152.37 92.6139 152.557 92.4642 152.691 92.2759C152.829 92.0841 152.898 91.8655 152.898 91.62V91.6099C152.898 91.361 152.831 91.1407 152.696 90.949C152.562 90.7539 152.374 90.6026 152.131 90.495C151.893 90.384 151.618 90.3285 151.309 90.3285C150.996 90.3285 150.72 90.384 150.482 90.495C150.243 90.6026 150.056 90.7539 149.922 90.949C149.787 91.1407 149.72 91.361 149.72 91.6099V91.62C149.72 91.8655 149.787 92.0841 149.922 92.2759C150.06 92.4642 150.248 92.6139 150.487 92.7249C150.725 92.8325 151 92.8863 151.309 92.8863ZM151.309 89.4153C151.578 89.4153 151.815 89.3682 152.02 89.2741C152.229 89.1765 152.39 89.042 152.505 88.8704C152.619 88.6989 152.676 88.5038 152.676 88.2852V88.2751C152.676 88.0531 152.617 87.8564 152.5 87.6849C152.385 87.5133 152.226 87.3805 152.02 87.2863C151.815 87.1888 151.578 87.14 151.309 87.14C151.04 87.14 150.801 87.1888 150.593 87.2863C150.387 87.3805 150.226 87.5133 150.108 87.6849C149.994 87.8564 149.937 88.0531 149.937 88.2751V88.2852C149.937 88.5038 149.994 88.6989 150.108 88.8704C150.226 89.042 150.387 89.1765 150.593 89.2741C150.798 89.3682 151.037 89.4153 151.309 89.4153ZM155.809 93.6582L159.018 87.4124V87.3368H155.204V86.3782H160.163V87.362L157 93.6582H155.809Z" fill="#F0F0F0" fill-opacity="0.9"/>
<path d="M81.3131 43.5081C80.3445 43.5081 79.7909 42.9315 79.7909 41.9283V35.7358H78.7531C78.4302 35.7358 78.1765 35.4821 78.1765 35.1593C78.1765 34.8248 78.4302 34.5827 78.7531 34.5827H79.7909V28.8861C79.7909 27.6522 80.6558 26.8681 81.9012 26.8681C83.0428 26.8681 83.7347 27.4677 84.1383 28.4479L86.8252 34.5827H88.5434V28.4479C88.5434 27.4446 89.0969 26.8681 90.0655 26.8681C91.0342 26.8681 91.5877 27.4446 91.5877 28.4479V34.5827H92.7293C93.0522 34.5827 93.2944 34.8248 93.2944 35.1593C93.2944 35.4821 93.0522 35.7358 92.7293 35.7358H91.5877V41.4901C91.5877 42.724 90.7228 43.5081 89.4774 43.5081C88.3358 43.5081 87.6439 42.9085 87.2403 41.9283L84.5189 35.7358H82.8353V41.9283C82.8353 42.9315 82.2818 43.5081 81.3131 43.5081ZM82.8353 32.1149V34.5827H84.0115L82.9275 32.1149H82.8353ZM88.4511 38.2843H88.5434V35.7358H87.3326L88.4511 38.2843ZM96.1773 43.4504C95.0818 43.4504 94.5398 42.8393 94.5398 41.9629C94.5398 41.3056 94.7935 40.8674 95.4969 40.2216L100.455 35.4821C102.508 33.5102 103.039 32.703 103.039 31.5038C103.039 30.1315 101.978 29.1513 100.49 29.1513C99.1524 29.1513 98.2299 29.8201 97.6302 31.1578C97.2382 31.8497 96.8346 32.1726 96.085 32.1726C95.151 32.1726 94.5974 31.6191 94.5974 30.7542C94.5974 30.489 94.6436 30.2468 94.7243 30.0047C95.2893 28.1596 97.3765 26.4414 100.525 26.4414C104.053 26.4414 106.429 28.4248 106.429 31.2847C106.429 33.3142 105.437 34.5827 102.716 37.1542L99.1178 40.6137V40.6829H105.391C106.29 40.6829 106.832 41.2249 106.832 42.0667C106.832 42.8854 106.29 43.4504 105.391 43.4504H96.1773ZM115.343 43.8194C111.364 43.8194 108.597 41.8245 108.597 38.9416C108.597 36.7506 110.211 35.1362 112.483 34.698V34.6288C110.523 34.1445 109.196 32.7261 109.196 30.9156C109.196 28.3326 111.733 26.4414 115.343 26.4414C118.952 26.4414 121.477 28.321 121.477 30.9272C121.477 32.7146 120.163 34.1329 118.214 34.6288V34.698C120.486 35.1477 122.089 36.7621 122.089 38.9531C122.089 41.836 119.31 43.8194 115.343 43.8194ZM115.343 33.5794C116.911 33.5794 118.041 32.6338 118.041 31.2731C118.041 29.9009 116.911 28.9553 115.343 28.9553C113.763 28.9553 112.644 29.9009 112.644 31.2731C112.644 32.6338 113.763 33.5794 115.343 33.5794ZM115.343 41.2825C117.176 41.2825 118.445 40.1985 118.445 38.6879C118.445 37.1888 117.176 36.1164 115.343 36.1164C113.509 36.1164 112.229 37.1888 112.229 38.6879C112.229 40.1985 113.509 41.2825 115.343 41.2825ZM130.253 43.8194C127.497 43.8194 125.479 42.551 124.787 41.0634C124.626 40.7405 124.556 40.4522 124.556 40.1524C124.556 39.3798 125.075 38.7917 125.998 38.7917C126.701 38.7917 127.093 39.103 127.612 39.6796C128.385 40.6137 129.123 41.0634 130.38 41.0634C132.836 41.0634 133.966 38.7225 133.978 35.2515V35.067H133.908C133.309 36.6699 131.671 37.7654 129.48 37.7654C126.401 37.7654 123.957 35.5744 123.957 32.334C123.957 28.8861 126.655 26.4299 130.368 26.4299C133.021 26.4299 135.119 27.6637 136.33 30.1084C136.964 31.3884 137.31 33.0375 137.31 34.9863C137.31 40.5214 134.67 43.8194 130.253 43.8194ZM130.38 35.1823C132.144 35.1823 133.47 33.9484 133.47 32.2533C133.47 30.5351 132.133 29.209 130.414 29.209C128.696 29.209 127.347 30.512 127.347 32.1956C127.347 33.9369 128.639 35.1823 130.38 35.1823ZM141.416 43.6695C140.32 43.6695 139.674 43.0007 139.674 41.8591V28.4018C139.674 27.2486 140.32 26.5798 141.416 26.5798C142.511 26.5798 143.157 27.2486 143.157 28.4018V34.1675H143.261L149.522 27.3293C150.007 26.7989 150.445 26.5798 151.021 26.5798C151.944 26.5798 152.659 27.2832 152.659 28.1827C152.659 28.667 152.486 29.0475 152.048 29.5088L147.458 34.3175L152.451 40.383C152.97 41.0288 153.201 41.5247 153.201 41.9975C153.201 42.9431 152.474 43.6811 151.517 43.6811C150.802 43.6811 150.318 43.4158 149.776 42.724L144.817 36.6238L143.157 38.365V41.8591C143.157 43.0007 142.511 43.6695 141.416 43.6695Z" fill="#F0F0F0" fill-opacity="0.9"/>
<path fill-rule="evenodd" clip-rule="evenodd" d="M105.193 118.694C108.061 118.694 110.386 116.369 110.386 113.501C110.386 110.633 108.061 108.308 105.193 108.308C102.325 108.308 100 110.633 100 113.501C100 116.369 102.325 118.694 105.193 118.694ZM103.18 110.633C103.18 110.633 104.031 113.092 105.193 115.725C106.354 113.092 107.206 110.633 107.206 110.633H108.987C108.987 110.633 107.903 113.79 105.89 117.738H104.496C102.483 113.79 101.399 110.633 101.399 110.633H103.18Z" fill="#C1C3C8"/>
<path fill-rule="evenodd" clip-rule="evenodd" d="M129.048 113.23C128.042 113.23 127.965 114.314 127.965 114.314H130.132C130.132 114.314 130.055 113.23 129.048 113.23ZM131.448 115.398H127.965C127.965 115.398 128.042 116.56 129.59 116.56C130.365 116.56 131.139 116.327 131.139 116.327L131.294 117.566C131.294 117.566 130.52 117.876 129.436 117.876C127.887 117.876 126.493 117.101 126.493 114.934C126.493 113.23 127.577 112.146 129.126 112.146C131.448 112.146 131.603 114.469 131.448 115.398ZM119.602 113.569L119.841 112.29C119.841 112.29 117.99 111.729 116.486 112.77V117.883H118.084V113.728C118.723 113.249 119.602 113.569 119.602 113.569ZM112.941 113.23C111.935 113.23 111.857 114.314 111.857 114.314H114.025C114.025 114.314 113.948 113.23 112.941 113.23ZM115.341 115.398H111.857C111.857 115.398 111.935 116.56 113.483 116.56C114.257 116.56 115.032 116.327 115.032 116.327L115.187 117.566C115.187 117.566 114.412 117.876 113.328 117.876C111.78 117.876 110.386 117.101 110.386 114.934C110.386 113.23 111.47 112.146 113.019 112.146C115.341 112.146 115.496 114.469 115.341 115.398ZM123.501 115.929C122.69 113.981 122.284 112.147 122.284 112.147L120.662 112.148C120.662 112.148 121.473 115.28 122.852 117.875H124.15C125.529 115.28 126.341 112.148 126.341 112.148H124.718C124.718 112.148 124.313 113.981 123.501 115.929Z" fill="#C1C3C8"/>
<defs>
<filter id="filter0_b_280_3225" x="-29.5208" y="-29.5208" width="290.042" height="191.885" filterUnits="userSpaceOnUse" color-interpolation-filters="sRGB">
<feFlood flood-opacity="0" result="BackgroundImageFix"/>
<feGaussianBlur in="BackgroundImageFix" stdDeviation="14.7604"/>
<feComposite in2="SourceAlpha" operator="in" result="effect1_backgroundBlur_280_3225"/>
<feBlend mode="normal" in="SourceGraphic" in2="effect1_backgroundBlur_280_3225" result="shape"/>
</filter>
</defs>
</svg>
