<svg width="770" height="269" viewBox="0 0 770 269" fill="none" xmlns="http://www.w3.org/2000/svg">
<path d="M1053.92 218.5C1053.92 336.176 958.284 431.915 840.721 431.915L218.279 431.915C100.717 431.915 5.07723 336.176 5.07723 218.5C5.07723 100.824 100.717 5.08502 218.279 5.08502L840.721 5.08502C958.284 5.08502 1053.92 100.824 1053.92 218.5ZM0 218.5C0 247.868 5.79802 276.419 17.2259 303.347C28.2573 329.339 44.0356 352.711 64.1197 372.811C84.203 392.919 107.551 408.715 133.518 419.752C160.425 431.194 188.941 437 218.279 437L840.721 437C870.06 437 898.576 431.194 925.483 419.752C951.45 408.715 974.798 392.919 994.881 372.811C1014.96 352.711 1030.74 329.339 1041.78 303.347C1053.2 276.419 1059 247.868 1059 218.5C1059 189.132 1053.2 160.581 1041.78 133.653C1030.74 107.652 1014.96 84.2803 994.881 64.1809C974.798 44.0728 951.45 28.2853 925.483 17.2392C898.576 5.79794 870.06 3.05176e-05 840.721 3.05176e-05L218.279 3.05176e-05C188.941 3.05176e-05 160.425 5.79794 133.518 17.2392C107.551 28.2853 84.203 44.0728 64.1197 64.1809C44.0356 84.2803 28.2573 107.652 17.2259 133.653C5.79802 160.581 0 189.132 0 218.5Z" fill="#3555F5" fill-opacity="0.05"/>
<path d="M1034.29 218.495C1034.29 325.576 947.261 412.69 840.289 412.69L218.709 412.69C111.737 412.69 24.7117 325.576 24.7117 218.495C24.7117 111.423 111.737 24.3005 218.709 24.3005L840.289 24.3005C947.261 24.3005 1034.29 111.423 1034.29 218.495ZM19.6348 218.495C19.6348 245.282 24.9199 271.316 35.3429 295.875C45.4046 319.587 59.7916 340.902 78.1089 359.234C96.4253 377.575 117.722 391.977 141.406 402.05C165.942 412.478 191.949 417.773 218.709 417.773L840.289 417.773C867.049 417.773 893.056 412.478 917.592 402.05C941.276 391.977 962.572 377.575 980.889 359.234C999.206 340.902 1013.59 319.587 1023.66 295.875C1034.08 271.316 1039.36 245.282 1039.36 218.495C1039.36 191.716 1034.08 165.675 1023.66 141.116C1013.59 117.404 999.206 96.0889 980.889 77.7564C962.572 59.4238 941.276 45.0221 917.592 34.9493C893.056 24.5038 867.049 19.2175 840.289 19.2175L218.709 19.2175C191.949 19.2175 165.942 24.5038 141.406 34.9493C117.722 45.0221 96.4253 59.4238 78.1089 77.7564C59.7916 96.0889 45.4046 117.404 35.3429 141.116C24.9199 165.675 19.6348 191.716 19.6348 218.495Z" fill="#3555F5" fill-opacity="0.05"/>
<path d="M1014.65 218.5C1014.65 314.976 936.238 393.476 839.856 393.476L219.14 393.476C122.758 393.476 44.3433 314.976 44.3433 218.5C44.3433 122.015 122.758 43.5241 219.14 43.5241L839.856 43.5241C936.238 43.5241 1014.65 122.015 1014.65 218.5ZM39.2661 218.5C39.2661 242.7 44.0438 266.224 53.4613 288.42C62.5533 309.839 75.555 329.102 92.1001 345.659C108.65 362.233 127.891 375.24 149.289 384.345C171.459 393.768 194.96 398.555 219.14 398.555L839.856 398.555C864.037 398.555 887.537 393.768 909.707 384.345C931.106 375.24 950.346 362.233 966.892 345.659C983.442 329.102 996.443 309.839 1005.54 288.42C1014.95 266.224 1019.73 242.7 1019.73 218.5C1019.73 194.299 1014.95 170.775 1005.54 148.58C996.443 127.161 983.442 107.897 966.892 91.3321C950.346 74.7668 931.106 61.7517 909.707 52.6546C887.537 43.2233 864.037 38.4451 839.856 38.4451L219.14 38.4451C194.96 38.4451 171.459 43.2233 149.289 52.6546C127.891 61.7517 108.65 74.7668 92.1001 91.3321C75.555 107.897 62.5533 127.161 53.4613 148.58C44.0438 170.775 39.2661 194.299 39.2661 218.5Z" fill="#3555F5" fill-opacity="0.05"/>
<path d="M995.02 218.498C995.02 304.38 925.226 374.244 839.434 374.244L219.57 374.244C133.778 374.244 63.9829 304.38 63.9829 218.498C63.9829 132.615 133.778 62.7431 219.57 62.7431L839.434 62.7431C925.226 62.7431 995.02 132.615 995.02 218.498ZM58.9058 218.498C58.9058 240.117 63.1708 261.126 71.5825 280.95C79.7054 300.081 91.3158 317.286 106.1 332.085C120.878 346.885 138.068 358.506 157.182 366.634C176.986 375.06 197.979 379.326 219.57 379.326L839.434 379.326C861.025 379.326 882.017 375.06 901.821 366.634C920.936 358.506 938.125 346.885 952.904 332.085C967.687 317.286 979.298 300.081 987.421 280.95C995.833 261.126 1000.1 240.117 1000.1 218.498C1000.1 196.879 995.833 175.869 987.421 156.046C979.298 136.906 967.687 119.702 952.904 104.91C938.125 90.1105 920.936 78.4898 901.821 70.3529C882.017 61.9359 861.025 57.6616 839.434 57.6616L219.57 57.6616C197.979 57.6616 176.986 61.9359 157.182 70.3529C138.068 78.4898 120.878 90.1105 106.1 104.91C91.3158 119.702 79.7054 136.906 71.5825 156.046C63.1708 175.869 58.9058 196.879 58.9058 218.498Z" fill="#3555F5" fill-opacity="0.05"/>
<path d="M975.387 218.494C975.387 293.779 914.203 355.019 839.001 355.019L220.001 355.019C144.798 355.019 83.6136 293.779 83.6136 218.494C83.6136 143.218 144.798 81.9686 220.001 81.9686L839.001 81.9686C914.203 81.9686 975.387 143.218 975.387 218.494ZM78.5371 218.494C78.5371 256.169 93.2956 291.684 120.09 318.514C146.885 345.335 182.372 360.101 220.001 360.101L839.001 360.101C876.635 360.101 912.116 345.335 938.912 318.514C965.706 291.684 980.464 256.169 980.464 218.494C980.464 180.819 965.706 145.304 938.912 118.483C912.116 91.6613 876.635 76.8869 839.001 76.8869L220.001 76.8869C182.372 76.8869 146.885 91.6613 120.09 118.483C93.2956 145.304 78.5371 180.819 78.5371 218.494Z" fill="#3555F5" fill-opacity="0.05"/>
<path d="M955.75 218.496C955.75 283.183 903.185 335.806 838.569 335.806L220.432 335.806C155.815 335.806 103.25 283.183 103.25 218.496C103.25 153.817 155.815 101.194 220.432 101.194L838.569 101.194C903.185 101.194 955.75 153.817 955.75 218.496ZM98.1738 218.496C98.1738 251.055 110.926 281.751 134.081 304.934C157.241 328.118 187.905 340.886 220.432 340.886L838.569 340.886C871.091 340.886 901.759 328.118 924.919 304.934C948.074 281.751 960.826 251.055 960.826 218.496C960.826 185.944 948.074 155.241 924.919 132.065C901.759 108.882 871.091 96.1141 838.569 96.1141L220.432 96.1141C187.905 96.1141 157.241 108.882 134.081 132.065C110.926 155.241 98.1738 185.944 98.1738 218.496Z" fill="#3555F5" fill-opacity="0.05"/>
<path d="M936.118 218.49C936.118 272.576 892.163 316.573 838.136 316.573L220.862 316.573C166.835 316.573 122.88 272.576 122.88 218.49C122.88 164.412 166.835 120.415 220.862 120.415L838.136 120.415C892.163 120.415 936.118 164.412 936.118 218.49ZM117.804 218.49C117.804 245.943 128.556 271.82 148.077 291.359C167.596 310.898 193.447 321.657 220.862 321.657L838.136 321.657C865.551 321.657 891.402 310.898 910.921 291.359C930.441 271.82 941.194 245.943 941.194 218.49C941.194 191.053 930.441 165.177 910.921 145.637C891.402 126.098 865.551 115.331 838.136 115.331L220.862 115.331C193.447 115.331 167.596 126.098 148.077 145.637C128.556 165.177 117.804 191.053 117.804 218.49Z" fill="#3555F5" fill-opacity="0.05"/>
<path d="M916.488 218.495C916.488 261.981 881.148 297.354 837.707 297.354L221.296 297.354C177.854 297.354 142.515 261.981 142.515 218.495C142.515 175.016 177.854 139.643 221.296 139.643L837.707 139.643C881.148 139.643 916.488 175.016 916.488 218.495ZM137.438 218.495C137.438 240.832 146.185 261.888 162.07 277.781C177.951 293.681 198.989 302.439 221.296 302.439L837.707 302.439C860.015 302.439 881.052 293.681 896.932 277.781C912.817 261.888 921.565 240.832 921.565 218.495C921.565 196.165 912.817 175.109 896.932 159.216C881.052 143.316 860.015 134.558 837.707 134.558L221.296 134.558C198.989 134.558 177.956 143.316 162.07 159.216C146.185 175.109 137.438 196.165 137.438 218.495Z" fill="#3555F5" fill-opacity="0.05"/>
<path d="M896.849 218.492C896.849 251.378 870.125 278.132 837.274 278.132L221.724 278.132C188.872 278.132 162.149 251.378 162.149 218.492C162.149 185.614 188.872 158.86 221.724 158.86L837.274 158.86C870.125 158.86 896.849 185.614 896.849 218.492ZM157.072 218.492C157.072 254.176 186.075 283.208 221.724 283.208L837.274 283.208C872.923 283.208 901.926 254.176 901.926 218.492C901.926 182.808 872.923 153.775 837.274 153.775L221.724 153.775C186.075 153.775 157.072 182.808 157.072 218.492Z" fill="#3555F5" fill-opacity="0.05"/>
<path d="M877.216 218.493C877.216 240.776 859.102 258.904 836.841 258.904L222.15 258.904C199.893 258.904 181.78 240.776 181.78 218.493C181.78 196.209 199.893 178.082 222.15 178.082L836.841 178.082C859.102 178.082 877.216 196.209 877.216 218.493ZM176.703 218.493C176.703 243.584 197.091 263.985 222.15 263.985L836.841 263.985C861.904 263.985 882.293 243.584 882.293 218.493C882.293 193.409 861.904 173 836.841 173L222.15 173C197.091 173 176.703 193.409 176.703 218.493Z" fill="#3555F5" fill-opacity="0.05"/>
</svg>
