<svg width="770" height="269" viewBox="0 0 770 269" fill="none" xmlns="http://www.w3.org/2000/svg">
<path d="M764.924 50.5C764.924 168.176 669.284 263.915 551.721 263.915L-70.721 263.915C-188.283 263.915 -283.923 168.176 -283.923 50.5C-283.923 -67.1763 -188.283 -162.915 -70.721 -162.915L551.721 -162.915C669.284 -162.915 764.924 -67.1763 764.924 50.5ZM-289 50.5C-289 79.8676 -283.202 108.419 -271.774 135.347C-260.743 161.339 -244.964 184.711 -224.88 204.811C-204.797 224.919 -181.449 240.715 -155.482 251.752C-128.575 263.194 -100.059 269 -70.721 269L551.721 269C581.06 269 609.576 263.194 636.483 251.752C662.45 240.715 685.798 224.919 705.881 204.811C725.965 184.711 741.744 161.339 752.775 135.347C764.203 108.419 770 79.8676 770 50.5C770 21.1325 764.203 -7.41907 752.775 -34.3472C741.744 -60.3476 725.965 -83.7197 705.881 -103.819C685.798 -123.927 662.45 -139.715 636.483 -150.761C609.576 -162.202 581.06 -168 551.721 -168L-70.721 -168C-100.059 -168 -128.575 -162.202 -155.482 -150.761C-181.449 -139.715 -204.797 -123.927 -224.88 -103.819C-244.964 -83.7197 -260.743 -60.3476 -271.774 -34.3472C-283.202 -7.41907 -289 21.1325 -289 50.5Z" fill="#3555F5" fill-opacity="0.05"/>
<path d="M745.287 50.4952C745.287 157.576 658.261 244.69 551.289 244.69L-70.2906 244.69C-177.263 244.69 -264.288 157.576 -264.288 50.4952C-264.288 -56.5775 -177.263 -143.699 -70.2906 -143.699L551.289 -143.699C658.261 -143.699 745.287 -56.5775 745.287 50.4952ZM-269.365 50.4952C-269.365 77.2825 -264.08 103.316 -253.657 127.875C-243.595 151.587 -229.208 172.902 -210.891 191.234C-192.575 209.575 -171.278 223.977 -147.594 234.05C-123.058 244.478 -97.0505 249.773 -70.2906 249.773L551.289 249.773C578.049 249.773 604.056 244.478 628.592 234.05C652.276 223.977 673.572 209.575 691.889 191.234C710.206 172.902 724.594 151.587 734.655 127.875C745.078 103.316 750.363 77.2825 750.363 50.4952C750.363 23.7165 745.078 -2.32521 734.655 -26.8844C724.594 -50.5965 710.206 -71.9111 691.889 -90.2436C673.572 -108.576 652.276 -122.978 628.592 -133.051C604.056 -143.496 578.049 -148.782 551.289 -148.782L-70.2906 -148.782C-97.0505 -148.782 -123.058 -143.496 -147.594 -133.051C-171.278 -122.978 -192.575 -108.576 -210.891 -90.2436C-229.208 -71.9111 -243.595 -50.5965 -253.657 -26.8844C-264.08 -2.32521 -269.365 23.7165 -269.365 50.4952Z" fill="#3555F5" fill-opacity="0.05"/>
<path d="M725.653 50.4999C725.653 146.976 647.238 225.476 550.856 225.476L-69.8601 225.476C-166.242 225.476 -244.657 146.976 -244.657 50.4999C-244.657 -45.9849 -166.242 -124.476 -69.8601 -124.476L550.856 -124.476C647.238 -124.476 725.653 -45.9849 725.653 50.4999ZM-249.734 50.4999C-249.734 74.7005 -244.956 98.2244 -235.539 120.42C-226.447 141.839 -213.445 161.102 -196.9 177.659C-180.35 194.233 -161.109 207.24 -139.711 216.345C-117.541 225.768 -94.0402 230.555 -69.8601 230.555L550.856 230.555C575.037 230.555 598.537 225.768 620.707 216.345C642.106 207.24 661.346 194.233 677.892 177.659C694.442 161.102 707.443 141.839 716.535 120.42C725.953 98.2244 730.73 74.7005 730.73 50.4999C730.73 26.2993 725.953 2.77544 716.535 -19.4202C707.443 -40.839 694.442 -60.1026 677.892 -76.6679C661.346 -93.2332 642.106 -106.248 620.707 -115.345C598.537 -124.777 575.037 -129.555 550.856 -129.555L-69.8601 -129.555C-94.0402 -129.555 -117.541 -124.777 -139.711 -115.345C-161.109 -106.248 -180.35 -93.2332 -196.9 -76.6679C-213.445 -60.1026 -226.447 -40.839 -235.539 -19.4202C-244.956 2.77544 -249.734 26.2993 -249.734 50.4999Z" fill="#3555F5" fill-opacity="0.05"/>
<path d="M706.02 50.4978C706.02 136.38 636.226 206.244 550.434 206.244L-69.4303 206.244C-155.222 206.244 -225.017 136.38 -225.017 50.4978C-225.017 -35.3847 -155.222 -105.257 -69.4303 -105.257L550.434 -105.257C636.226 -105.257 706.02 -35.3847 706.02 50.4978ZM-230.094 50.4978C-230.094 72.1167 -225.829 93.1261 -217.418 112.95C-209.295 132.081 -197.684 149.286 -182.9 164.085C-168.122 178.885 -150.932 190.506 -131.818 198.634C-112.014 207.06 -91.0213 211.326 -69.4303 211.326L550.434 211.326C572.025 211.326 593.017 207.06 612.821 198.634C631.936 190.506 649.125 178.885 663.904 164.085C678.687 149.286 690.298 132.081 698.421 112.95C706.833 93.1261 711.097 72.1167 711.097 50.4978C711.097 28.8789 706.833 7.86942 698.421 -11.9541C690.298 -31.094 678.687 -48.2984 663.904 -63.0898C649.125 -77.8895 631.936 -89.5102 612.821 -97.6471C593.017 -106.064 572.025 -110.338 550.434 -110.338L-69.4303 -110.338C-91.0213 -110.338 -112.014 -106.064 -131.818 -97.6471C-150.932 -89.5102 -168.122 -77.8895 -182.9 -63.0898C-197.684 -48.2984 -209.295 -31.094 -217.418 -11.9541C-225.829 7.86942 -230.094 28.8789 -230.094 50.4978Z" fill="#3555F5" fill-opacity="0.05"/>
<path d="M686.387 50.494C686.387 125.779 625.203 187.019 550.001 187.019L-68.9994 187.019C-144.202 187.019 -205.386 125.779 -205.386 50.494C-205.386 -24.7824 -144.202 -86.0314 -68.9994 -86.0314L550.001 -86.0314C625.203 -86.0314 686.387 -24.7824 686.387 50.494ZM-210.463 50.494C-210.463 88.1688 -195.704 123.684 -168.91 150.514C-142.115 177.335 -106.628 192.101 -68.9994 192.101L550.001 192.101C587.635 192.101 623.116 177.335 649.912 150.514C676.706 123.684 691.464 88.1688 691.464 50.494C691.464 12.8193 676.706 -22.6962 649.912 -49.5174C623.116 -76.3387 587.635 -91.1131 550.001 -91.1131L-68.9994 -91.1131C-106.628 -91.1131 -142.115 -76.3387 -168.91 -49.5174C-195.704 -22.6962 -210.463 12.8193 -210.463 50.494Z" fill="#3555F5" fill-opacity="0.05"/>
<path d="M666.75 50.4959C666.75 115.183 614.185 167.806 549.569 167.806L-68.5683 167.806C-133.185 167.806 -185.75 115.183 -185.75 50.4959C-185.75 -14.183 -133.185 -66.806 -68.5683 -66.806L549.569 -66.806C614.185 -66.806 666.75 -14.183 666.75 50.4959ZM-190.826 50.4959C-190.826 83.0553 -178.074 113.751 -154.919 136.934C-131.759 160.118 -101.095 172.886 -68.5683 172.886L549.569 172.886C582.091 172.886 612.759 160.118 635.919 136.934C659.074 113.751 671.826 83.0553 671.826 50.4959C671.826 17.9445 659.074 -12.759 635.919 -35.9345C612.759 -59.1181 582.091 -71.8859 549.569 -71.8859L-68.5683 -71.8859C-101.095 -71.8859 -131.759 -59.1181 -154.919 -35.9345C-178.074 -12.759 -190.826 17.9445 -190.826 50.4959Z" fill="#3555F5" fill-opacity="0.05"/>
<path d="M647.118 50.4903C647.118 104.576 603.163 148.573 549.136 148.573L-68.1384 148.573C-122.165 148.573 -166.12 104.576 -166.12 50.4903C-166.12 -3.58784 -122.165 -47.5849 -68.1384 -47.5849L549.136 -47.5849C603.163 -47.5849 647.118 -3.58784 647.118 50.4903ZM-171.196 50.4903C-171.196 77.9431 -160.444 103.82 -140.923 123.359C-121.404 142.898 -95.553 153.657 -68.1384 153.657L549.136 153.657C576.551 153.657 602.402 142.898 621.921 123.359C641.441 103.82 652.194 77.9431 652.194 50.4903C652.194 23.0532 641.441 -2.82329 621.921 -22.3627C602.402 -41.902 576.551 -52.6688 549.136 -52.6688L-68.1384 -52.6688C-95.553 -52.6688 -121.404 -41.902 -140.923 -22.3627C-160.444 -2.82329 -171.196 23.0532 -171.196 50.4903Z" fill="#3555F5" fill-opacity="0.05"/>
<path d="M627.488 50.4945C627.488 93.9807 592.148 129.354 548.707 129.354L-67.7042 129.354C-111.146 129.354 -146.485 93.9807 -146.485 50.4945C-146.485 7.01608 -111.146 -28.3567 -67.7042 -28.3567L548.707 -28.3567C592.148 -28.3567 627.488 7.01608 627.488 50.4945ZM-151.562 50.4945C-151.562 72.8316 -142.815 93.8876 -126.93 109.781C-111.049 125.681 -90.0115 134.439 -67.7042 134.439L548.707 134.439C571.015 134.439 592.052 125.681 607.932 109.781C623.817 93.8876 632.565 72.8316 632.565 50.4945C632.565 28.1652 623.817 7.10925 607.932 -8.78368C592.052 -24.6844 571.015 -33.4421 548.707 -33.4421L-67.7042 -33.4421C-90.0115 -33.4421 -111.044 -24.6844 -126.93 -8.78368C-142.815 7.10925 -151.562 28.1652 -151.562 50.4945Z" fill="#3555F5" fill-opacity="0.05"/>
<path d="M607.849 50.4919C607.849 83.3778 581.125 110.132 548.274 110.132L-67.276 110.132C-100.128 110.132 -126.851 83.3778 -126.851 50.4919C-126.851 17.6136 -100.128 -9.1401 -67.276 -9.1401L548.274 -9.1401C581.125 -9.1401 607.849 17.6136 607.849 50.4919ZM-131.928 50.4919C-131.928 86.1763 -102.925 115.208 -67.276 115.208L548.274 115.208C583.923 115.208 612.926 86.1763 612.926 50.4919C612.926 14.8075 583.923 -14.2248 548.274 -14.2248L-67.276 -14.2248C-102.925 -14.2248 -131.928 14.8075 -131.928 50.4919Z" fill="#3555F5" fill-opacity="0.05"/>
<path d="M588.216 50.4927C588.216 72.7761 570.102 90.9038 547.841 90.9038L-66.8499 90.9038C-89.1067 90.9038 -107.22 72.7761 -107.22 50.4927C-107.22 28.2094 -89.1067 10.0816 -66.8499 10.0816L547.841 10.0816C570.102 10.0816 588.216 28.2094 588.216 50.4927ZM-112.297 50.4927C-112.297 75.5841 -91.9089 95.9854 -66.8499 95.9854L547.841 95.9854C572.904 95.9854 593.293 75.5841 593.293 50.4927C593.293 25.4089 572.904 5.00011 547.841 5.00011L-66.8499 5.00011C-91.9089 5.00011 -112.297 25.4089 -112.297 50.4927Z" fill="#3555F5" fill-opacity="0.05"/>
</svg>
