<svg width="232" height="34" viewBox="0 0 232 34" fill="none" xmlns="http://www.w3.org/2000/svg">
<g clip-path="url(#clip0_284_1089)">
<path d="M33.1001 0.702637V11.6629H22.1404V33.3623H11.0481V11.6629H0V0.702637H33.1001Z" fill="#00A562"/>
<path d="M65.8469 0.658691H44.1484V11.7073H65.8469V0.658691Z" fill="#00A562"/>
<path d="M65.8467 22.7561V33.3628H33.1001V11.7075H44.1924V22.7561H65.8467Z" fill="#00A562"/>
</g>
<path d="M79.0248 7.62305H72.5762V4.62702H88.8974V7.62305H82.4774V25H79.0248V7.62305ZM100.586 20.6058C100.3 22.1466 99.6441 23.3451 98.6169 24.2011C97.5611 25.0571 96.0489 25.4565 94.1086 25.4565C91.7403 25.4565 89.9427 24.8003 88.7157 23.4307C87.4888 22.061 86.8896 20.1493 86.8896 17.6669C86.8896 16.4114 87.0608 15.27 87.4032 14.2714C87.7456 13.3012 88.2592 12.4738 88.8869 11.7889C89.5147 11.1041 90.2851 10.5905 91.1696 10.2481C92.0542 9.90573 93.0243 9.706 94.1086 9.706C95.2499 9.706 96.2201 9.90573 97.0761 10.2481C97.9036 10.5905 98.5884 11.1041 99.159 11.7319C99.7012 12.3596 100.101 13.13 100.386 14.0146C100.643 14.8991 100.785 15.8693 100.785 16.9535V18.3802H90.1424C90.1709 19.7498 90.5134 20.8341 91.1696 21.6616C91.7974 22.5176 92.796 22.917 94.1086 22.917C95.1358 22.917 95.9062 22.7173 96.4198 22.3178C96.9334 21.9184 97.2758 21.3477 97.447 20.6058H100.586ZM97.6182 16.1261C97.6182 14.9276 97.3329 13.9575 96.7622 13.2442C96.1915 12.5594 95.2785 12.1884 94.023 12.1884C92.8246 12.1884 91.9115 12.5594 91.2838 13.2727C90.656 13.986 90.2851 14.9276 90.1995 16.1261H97.6182ZM117.023 19.8069C116.824 21.576 116.196 22.9741 115.112 23.9728C114.027 24.9715 112.515 25.4565 110.518 25.4565C109.319 25.4565 108.263 25.2853 107.379 24.9144C106.494 24.5435 105.753 24.0013 105.182 23.3165C104.583 22.6317 104.155 21.8328 103.869 20.8626C103.584 19.8925 103.441 18.8367 103.441 17.6383C103.441 16.4685 103.584 15.3842 103.926 14.414C104.24 13.4439 104.697 12.5879 105.325 11.9031C105.952 11.2183 106.694 10.6761 107.607 10.2767C108.492 9.90573 109.519 9.706 110.66 9.706C111.688 9.706 112.572 9.84867 113.314 10.134C114.027 10.4193 114.626 10.7903 115.112 11.2468C115.568 11.7033 115.939 12.2455 116.224 12.8447C116.481 13.4724 116.681 14.1002 116.795 14.7564L113.571 15.2415C113.4 14.414 113.114 13.7292 112.686 13.1586C112.258 12.6164 111.545 12.3311 110.546 12.3311C109.804 12.3311 109.205 12.5023 108.749 12.7876C108.263 13.1015 107.893 13.501 107.607 13.986C107.322 14.4711 107.094 15.0132 106.979 15.641C106.865 16.2687 106.808 16.925 106.808 17.5527C106.808 18.2946 106.865 19.0079 107.008 19.6357C107.122 20.292 107.35 20.8626 107.636 21.3192C107.921 21.7757 108.292 22.1466 108.777 22.432C109.234 22.7173 109.833 22.8314 110.518 22.8314C111.488 22.8314 112.258 22.5746 112.772 22.061C113.285 21.5474 113.599 20.777 113.742 19.8069H117.023ZM123.285 4.62702V12.217C123.913 11.3609 124.626 10.7332 125.454 10.3337C126.281 9.93427 127.166 9.706 128.107 9.706C131.417 9.706 133.072 11.5321 133.072 15.1844V25H129.819V15.6981C129.819 14.4996 129.591 13.6722 129.163 13.1871C128.706 12.702 128.079 12.4452 127.223 12.4452C126.623 12.4452 126.081 12.5594 125.596 12.7591C125.111 12.9874 124.712 13.2442 124.369 13.5866C124.027 13.929 123.742 14.3284 123.57 14.785C123.371 15.2415 123.285 15.6981 123.285 16.1546V25H120.061V4.62702H123.285Z" fill="#00A562"/>
<path d="M154.017 18.1234C153.903 19.2077 153.646 20.1778 153.247 21.0624C152.847 21.9754 152.277 22.7458 151.592 23.4021C150.879 24.0869 150.023 24.6005 149.024 24.9715C147.997 25.3424 146.827 25.5136 145.514 25.5136C144.031 25.5136 142.718 25.2853 141.577 24.7717C140.435 24.2867 139.465 23.5733 138.666 22.6602C137.867 21.7472 137.268 20.6058 136.869 19.2933C136.469 17.9807 136.269 16.497 136.269 14.842C136.269 13.1871 136.469 11.6748 136.926 10.3337C137.382 9.02119 138.01 7.87985 138.837 6.96677C139.636 6.0537 140.635 5.34036 141.776 4.85529C142.918 4.37022 144.173 4.11341 145.543 4.11341C146.798 4.11341 147.911 4.28462 148.853 4.59849C149.766 4.94089 150.565 5.39743 151.221 5.99663C151.877 6.59584 152.391 7.30918 152.79 8.13665C153.19 8.99266 153.475 9.90573 153.675 10.9329L150.279 11.418C150.108 10.7332 149.937 10.134 149.709 9.59186C149.48 9.07826 149.167 8.62172 148.796 8.25079C148.425 7.87985 147.968 7.59451 147.455 7.39478C146.912 7.19504 146.285 7.08091 145.543 7.08091C144.63 7.08091 143.802 7.28064 143.117 7.62305C142.404 7.99398 141.805 8.50759 141.32 9.19239C140.835 9.8772 140.464 10.6761 140.236 11.6177C139.979 12.5879 139.865 13.6436 139.865 14.8135C139.865 16.0119 139.979 17.0962 140.236 18.0378C140.492 19.0079 140.863 19.8069 141.377 20.4917C141.862 21.1765 142.461 21.6901 143.146 22.0325C143.831 22.3749 144.63 22.5461 145.543 22.5461C146.342 22.5461 146.998 22.4605 147.569 22.2322C148.139 22.0325 148.596 21.7472 148.995 21.3477C149.366 20.9768 149.652 20.5202 149.88 19.9781C150.108 19.436 150.251 18.8082 150.365 18.1234H154.017ZM160.092 10.1625V12.3596C160.606 11.5892 161.205 10.99 161.947 10.562C162.661 10.1625 163.431 9.93427 164.258 9.93427C164.572 9.93427 164.829 9.9628 165.057 9.9628C165.286 9.99133 165.485 10.0199 165.714 10.0484L165.343 13.0159C165.114 12.9588 164.886 12.9303 164.658 12.9018C164.401 12.9018 164.144 12.8732 163.887 12.8732C163.26 12.8732 162.746 12.9874 162.29 13.1871C161.833 13.3868 161.434 13.6436 161.12 13.9575C160.806 14.2999 160.578 14.6708 160.406 15.0703C160.235 15.4698 160.178 15.8978 160.178 16.2973V25H156.954V10.1625H160.092ZM171.266 10.1625V19.493C171.266 20.7485 171.465 21.576 171.865 22.0325C172.264 22.489 172.892 22.7173 173.748 22.7173C174.205 22.7173 174.661 22.6317 175.118 22.4605C175.574 22.2893 176.002 22.061 176.373 21.7186C176.716 21.4048 177.029 21.0053 177.258 20.5488C177.486 20.0922 177.6 19.5786 177.6 19.0079V10.1625H180.853V25H177.686V22.8314C177.001 23.7445 176.259 24.4293 175.46 24.8288C174.661 25.2568 173.805 25.4565 172.892 25.4565C171.151 25.4565 169.896 25.0285 169.154 24.1155C168.412 23.2309 168.041 21.8613 168.041 20.0066V10.1625H171.266ZM187.679 10.1625V12.3311C188.335 11.418 189.077 10.7617 189.904 10.3337C190.732 9.93427 191.616 9.706 192.586 9.706C195.896 9.706 197.551 11.5321 197.551 15.1844V25H194.298V15.6981C194.298 14.4996 194.07 13.6722 193.642 13.1871C193.186 12.702 192.558 12.4452 191.702 12.4452C191.131 12.4452 190.589 12.5594 190.104 12.7591C189.619 12.9588 189.219 13.2156 188.877 13.558C188.535 13.9004 188.249 14.2999 188.05 14.7564C187.85 15.213 187.764 15.6695 187.764 16.1546V25H184.54V10.1625H187.679ZM214.188 19.8069C213.988 21.576 213.36 22.9741 212.276 23.9728C211.192 24.9715 209.68 25.4565 207.682 25.4565C206.484 25.4565 205.428 25.2853 204.544 24.9144C203.659 24.5435 202.917 24.0013 202.346 23.3165C201.747 22.6317 201.319 21.8328 201.034 20.8626C200.749 19.8925 200.606 18.8367 200.606 17.6383C200.606 16.4685 200.749 15.3842 201.091 14.414C201.405 13.4439 201.861 12.5879 202.489 11.9031C203.117 11.2183 203.859 10.6761 204.772 10.2767C205.656 9.90573 206.684 9.706 207.825 9.706C208.852 9.706 209.737 9.84867 210.479 10.134C211.192 10.4193 211.791 10.7903 212.276 11.2468C212.733 11.7033 213.104 12.2455 213.389 12.8447C213.646 13.4724 213.846 14.1002 213.96 14.7564L210.735 15.2415C210.564 14.414 210.279 13.7292 209.851 13.1586C209.423 12.6164 208.709 12.3311 207.711 12.3311C206.969 12.3311 206.37 12.5023 205.913 12.7876C205.428 13.1015 205.057 13.501 204.772 13.986C204.487 14.4711 204.258 15.0132 204.144 15.641C204.03 16.2687 203.973 16.925 203.973 17.5527C203.973 18.2946 204.03 19.0079 204.173 19.6357C204.287 20.292 204.515 20.8626 204.8 21.3192C205.086 21.7757 205.457 22.1466 205.942 22.432C206.398 22.7173 206.997 22.8314 207.682 22.8314C208.652 22.8314 209.423 22.5746 209.936 22.061C210.45 21.5474 210.764 20.777 210.907 19.8069H214.188ZM220.45 4.62702V12.217C221.077 11.3609 221.791 10.7332 222.618 10.3337C223.446 9.93427 224.33 9.706 225.272 9.706C228.582 9.706 230.237 11.5321 230.237 15.1844V25H226.984V15.6981C226.984 14.4996 226.756 13.6722 226.328 13.1871C225.871 12.702 225.243 12.4452 224.387 12.4452C223.788 12.4452 223.246 12.5594 222.761 12.7591C222.276 12.9874 221.876 13.2442 221.534 13.5866C221.192 13.929 220.906 14.3284 220.735 14.785C220.535 15.2415 220.45 15.6981 220.45 16.1546V25H217.225V4.62702H220.45Z" fill="white"/>
<defs>
<clipPath id="clip0_284_1089">
<rect width="65.8467" height="32.7039" fill="white" transform="translate(0 0.658691)"/>
</clipPath>
</defs>
</svg>
