<svg width="1440" height="1151" viewBox="0 0 1440 1151" fill="none" xmlns="http://www.w3.org/2000/svg">
<path d="M1651.8 993.122L1441.27 671.868L1713.37 493.535" stroke="#3F3F3F" stroke-opacity="0.3" stroke-width="14.6666" stroke-miterlimit="10"/>
<path d="M1447.08 840.215L1243.89 530.201L1600.29 296.64L1464.34 89.2134" stroke="#3F3F3F" stroke-opacity="0.3" stroke-width="14.6667" stroke-miterlimit="10"/>
<path d="M1323.64 579.961L1701.7 332.214L1501.44 26.6412" stroke="#3F3F3F" stroke-opacity="0.3" stroke-width="14.6667" stroke-miterlimit="10"/>
<path d="M1348.49 617.881L1785.63 331.388L1947.9 578.961L2037.11 520.495" stroke="#3F3F3F" stroke-opacity="0.3" stroke-width="14.6667" stroke-miterlimit="10"/>
<path d="M1517.44 246.348L1151.57 486.121L1066.79 356.761" stroke="#3F3F3F" stroke-opacity="0.3" stroke-width="14.6667" stroke-miterlimit="10"/>
<path d="M1491.13 206.201L1169.87 416.748L991.548 144.641" stroke="#3F3F3F" stroke-opacity="0.3" stroke-width="14.6667" stroke-miterlimit="10"/>
<path d="M1238.55 336.668L1182.79 373.201L963.535 38.6547L1128.57 -69.5186" stroke="#3F3F3F" stroke-opacity="0.3" stroke-width="14.6667" stroke-miterlimit="10"/>
<path d="M1447.73 164.495L1200.16 326.748L1021.84 54.6413L1175.73 -46.212L1034.68 -261.448L826.135 -124.785" stroke="#3F3F3F" stroke-opacity="0.3" stroke-width="14.6667" stroke-miterlimit="10"/>
<path d="M1065 67.0013L1251.24 -55.052L1082.79 -312.104" stroke="#3F3F3F" stroke-opacity="0.3" stroke-width="14.6667" stroke-miterlimit="10"/>
<path d="M1338.23 410.921L1028.2 614.108L794.655 257.721L587.227 393.668" stroke="#3F3F3F" stroke-opacity="0.3" stroke-width="14.6667" stroke-miterlimit="10"/>
<path d="M1077.97 534.361L830.214 156.308L524.65 356.561" stroke="#3F3F3F" stroke-opacity="0.3" stroke-width="14.6667" stroke-miterlimit="10"/>
<path d="M1115.88 509.508L829.388 72.348L1076.96 -89.892L1018.49 -179.105" stroke="#3F3F3F" stroke-opacity="0.3" stroke-width="14.6667" stroke-miterlimit="10"/>
<path d="M1961.84 490.108L1544.09 -147.343L1162.02 103.057" stroke="#3F3F3F" stroke-opacity="0.3" stroke-width="14.6666" stroke-miterlimit="10"/>
<path d="M1252.41 149.826L1545.86 -42.4808L1729.38 237.547" stroke="#3F3F3F" stroke-opacity="0.3" stroke-width="14.6667" stroke-miterlimit="10"/>
<path d="M1304.86 -90.1851L1585.41 -274.048L1946.52 276.974" stroke="#3F3F3F" stroke-opacity="0.3" stroke-width="14.6667" stroke-miterlimit="10"/>
</svg>
