<svg width="30" height="30" viewBox="0 0 30 30" fill="none" xmlns="http://www.w3.org/2000/svg">
<path d="M20.2808 20.2822H18.0583V16.8015C18.0583 15.9715 18.0435 14.9031 16.9023 14.9031C15.7448 14.9031 15.5677 15.8074 15.5677 16.7411V20.282H13.3451V13.1243H15.4787V14.1025H15.5086C15.7221 13.7374 16.0307 13.437 16.4014 13.2334C16.7721 13.0298 17.1911 12.9306 17.6138 12.9463C19.8664 12.9463 20.2817 14.428 20.2817 16.3556L20.2808 20.2822ZM10.8374 12.1459C10.5823 12.1459 10.3329 12.0703 10.1208 11.9286C9.90864 11.787 9.7433 11.5855 9.64564 11.3499C9.54798 11.1142 9.52238 10.8549 9.5721 10.6047C9.62182 10.3545 9.74463 10.1246 9.92497 9.94421C10.1053 9.7638 10.3351 9.64091 10.5853 9.5911C10.8355 9.54129 11.0948 9.56678 11.3305 9.66436C11.5662 9.76194 11.7676 9.92722 11.9094 10.1393C12.0512 10.3514 12.1268 10.6007 12.1269 10.8558C12.1269 11.0252 12.0936 11.193 12.0288 11.3495C11.964 11.5059 11.869 11.6482 11.7493 11.7679C11.6296 11.8877 11.4874 11.9828 11.3309 12.0476C11.1744 12.1125 11.0067 12.1459 10.8374 12.1459ZM11.9486 20.2822H9.72378V13.1243H11.9486V20.2822ZM21.3752 7.12504H8.59338C8.30326 7.12177 7.70779 7.29838 7.50024 7.50112C7.2927 7.70386 7.50364 8.29334 7.50009 8.58346V21.4188C7.50351 21.709 7.17073 22.8134 7.50018 22.5012C7.70772 22.7042 8.30312 22.8781 8.59338 22.875H21.3752C21.6661 22.8786 22.2917 22.7041 22.5001 22.5011C22.7085 22.2982 22.4961 21.7096 22.5001 21.4188V8.58254C22.4959 8.29184 22.7086 7.70282 22.5002 7.50009C22.2919 7.29736 21.6795 7.4975 21.3888 7.50133" fill="#FCFCFC" fill-opacity="0.9"/>
<path fill-rule="evenodd" clip-rule="evenodd" d="M15 30C23.2843 30 30 23.2843 30 15C30 6.71573 23.2843 0 15 0C6.71573 0 0 6.71573 0 15C0 23.2843 6.71573 30 15 30ZM22.5 7.5H7.5V22.5H22.5V7.5Z" fill="#FCFCFC" fill-opacity="0.9"/>
</svg>
