<svg width="62" height="62" viewBox="0 0 62 62" fill="none" xmlns="http://www.w3.org/2000/svg">
<g opacity="0.8">
<path d="M17.0018 27.7414C16.8728 27.6488 16.6938 27.6791 16.602 27.8089L16.0203 28.631C15.9284 28.7606 15.9584 28.9409 16.0873 29.0334L21.5375 32.9418L21.9897 33.939C22.0764 34.1304 22.1978 34.2989 22.3508 34.4402C22.4983 34.5764 22.6685 34.6814 22.8568 34.7521C23.0451 34.8228 23.242 34.8559 23.4422 34.8502C23.6412 34.8446 23.8346 34.801 24.0176 34.7204L26.6217 36.588C26.7507 36.6804 26.9297 36.6502 27.0216 36.5204L27.6033 35.6984C27.6952 35.5686 27.6651 35.3884 27.5361 35.2959L25.6733 33.96L26.5135 33.5739L26.9975 33.3515L27.3716 33.1797C27.8898 33.4442 28.5364 33.295 28.8838 32.8041C28.9729 32.6782 29.0345 32.5409 29.0698 32.3995L30.5366 31.7256C30.694 31.6533 30.8358 31.5569 30.9596 31.4385C30.9609 31.6777 30.8902 31.9195 30.7418 32.1291L28.4845 35.3185L28.1758 35.7546L26.9934 37.4254L26.5989 37.9828C26.2227 38.5143 25.4897 38.6382 24.9617 38.2595L15.0602 31.1587C14.5321 30.7801 14.409 30.0422 14.7853 29.5106L15.1796 28.9533L16.3621 27.2826L16.6708 26.8464L17.9524 25.0354L20.2288 30.0555L17.0018 27.7414Z" fill="#F0F0F0"/>
<path d="M20.2816 20.5245L19.3694 20.9436C19.2255 21.0098 19.1619 21.1808 19.2277 21.3259L19.8888 22.7839L20.0661 23.1751L22.0063 27.454L21.9025 28.5451C21.8826 28.7544 21.904 28.9615 21.9663 29.1608C22.0264 29.353 22.1217 29.5297 22.2497 29.6857C22.3775 29.8417 22.5317 29.9694 22.7079 30.0652C22.8827 30.1604 23.0721 30.22 23.2706 30.2424L24.5982 33.1705C24.6028 33.1809 24.6081 33.1908 24.6138 33.2003C24.6556 33.2699 24.7234 33.3163 24.7985 33.3327C24.8568 33.3455 24.9196 33.3401 24.9781 33.3132L25.8902 32.8941C26.0342 32.8279 26.0977 32.6568 26.032 32.5118L25.81 32.0222L25.5639 31.4793L25.5638 31.4792L25.0821 30.4171L26.9406 30.5962C27.1617 30.9376 27.5365 31.1364 27.9279 31.1407C27.9773 31.1414 28.0269 31.1388 28.0766 31.1331C28.1981 31.119 28.3195 31.0859 28.4368 31.032C28.4388 31.031 28.4408 31.0301 28.4428 31.0292C28.5799 30.9653 28.6994 30.8785 28.7987 30.7752L30.4038 30.9298C30.5489 30.9438 30.693 30.9376 30.834 30.9112C30.8604 30.9062 30.8867 30.9005 30.9128 30.8942C30.8974 30.9215 30.8808 30.9482 30.8633 30.9741C30.7466 31.1464 30.5832 31.2897 30.3811 31.3827L29.098 31.9722L27.032 32.9213L26.8421 33.0086L26.358 33.231L25.3211 33.7074L24.5041 34.0827L23.8856 34.3669C23.8049 34.404 23.7222 34.4311 23.6387 34.4487C23.1132 34.56 22.5626 34.295 22.3304 33.7825L22.1474 33.3793L20.8387 30.4929L18.2034 24.6809L18.0238 24.2849L17.2824 22.6496C17.0131 22.0559 17.2731 21.355 17.8629 21.0839L18.4813 20.7997L20.3352 19.948L20.8193 19.7256L22.8289 18.8024L22.3066 24.2957L22.2195 24.1037L20.6614 20.6672C20.5956 20.5222 20.4255 20.4584 20.2816 20.5245Z" fill="#F0F0F0"/>
<path d="M27.374 16.4511C27.3913 16.2926 27.2777 16.1502 27.1203 16.1328L26.1236 16.0228C25.9663 16.0054 25.8247 16.1197 25.8074 16.2781L25.078 22.9741L24.434 23.858C24.3104 24.0275 24.2235 24.2165 24.1756 24.4199C24.1295 24.6159 24.1215 24.8168 24.1521 25.0167C24.1827 25.2166 24.2501 25.4058 24.3527 25.5788C24.4547 25.7509 24.5869 25.8996 24.7461 26.0211L24.3975 29.2205C24.3802 29.3789 24.4938 29.5214 24.6512 29.5388L25.6478 29.6489C25.8052 29.6662 25.9467 29.5518 25.964 29.3934L26.2134 27.1047L26.9582 27.6546L27.3872 27.9713L27.7188 28.2161C27.7423 28.8005 28.1872 29.2957 28.7824 29.3614C28.9351 29.3783 29.0841 29.3654 29.224 29.3274L30.5241 30.2874C30.6636 30.3903 30.8164 30.4679 30.9795 30.5189C30.7727 30.6367 30.5286 30.6926 30.2744 30.6646L26.4073 30.2377L25.8784 30.1793L23.8527 29.9557L23.1769 29.8811C22.5324 29.81 22.0672 29.2264 22.138 28.5776L23.4632 16.4129C23.5339 15.7641 24.1136 15.2958 24.7582 15.367L25.4339 15.4416L27.4596 15.6652L27.9885 15.7235L30.1843 15.9659L26.9421 20.4157L27.374 16.4511Z" fill="#F0F0F0"/>
<path d="M35.2325 15.8111L34.424 15.2141C34.2963 15.1199 34.117 15.1475 34.0234 15.2761L33.0817 16.5685L32.829 16.9152L30.0655 20.708L29.0688 21.1493C28.8776 21.2339 28.7084 21.3538 28.566 21.5058C28.4286 21.6523 28.322 21.8223 28.2491 22.0109C28.1763 22.1993 28.1408 22.3971 28.1437 22.5987C28.1465 22.7988 28.1872 22.9942 28.2646 23.1795L26.3735 25.7749C26.3668 25.784 26.3608 25.7935 26.3554 25.8032C26.3154 25.8738 26.3082 25.956 26.3306 26.03C26.348 26.0875 26.3833 26.14 26.4352 26.1783L27.2436 26.7752C27.3713 26.8694 27.5507 26.8417 27.6443 26.7132L27.9605 26.2793L28.3112 25.798L28.3113 25.7979L28.9972 24.8565L29.7488 26.5767C29.5607 26.9376 29.5712 27.3639 29.7585 27.7099C29.7819 27.7536 29.8084 27.796 29.8376 27.8368C29.9091 27.9367 29.9971 28.0273 30.1011 28.1039C30.1029 28.1053 30.1047 28.1066 30.1064 28.1078C30.2287 28.1972 30.3624 28.2598 30.5003 28.2966L31.1495 29.7824C31.2082 29.9166 31.284 30.0402 31.3757 30.1513C31.3928 30.172 31.4106 30.1923 31.4288 30.2122C31.3976 30.2119 31.3664 30.2104 31.3354 30.2077C31.129 30.1893 30.925 30.1157 30.7458 29.9834L29.6085 29.1437L27.7772 27.7917L27.6089 27.6674L27.1799 27.3506L26.2607 26.672L25.5366 26.1374L24.9883 25.7326C24.9168 25.6798 24.8529 25.6204 24.797 25.5557C24.444 25.1482 24.4051 24.5351 24.7361 24.081L24.9965 23.7235L26.8606 21.1651L30.6142 16.0134L30.87 15.6624L31.9262 14.2129C32.3096 13.6866 33.0443 13.573 33.5671 13.959L34.1153 14.3636L35.7586 15.5768L36.1876 15.8936L37.9689 17.2088L32.9507 19.4306L33.0746 19.2604L35.2942 16.2144C35.3878 16.0858 35.3601 15.9053 35.2325 15.8111Z" fill="#F0F0F0"/>
<path d="M42.4175 19.6151C42.4812 19.761 42.4154 19.9313 42.2704 19.9955L30.4306 25.2375C30.2857 25.3017 30.1165 25.2354 30.0528 25.0895L29.6491 24.1656C29.6232 24.1065 29.6187 24.0433 29.6321 23.9848C29.6494 23.9095 29.6964 23.8418 29.7662 23.8008C29.7758 23.7951 29.7858 23.79 29.7961 23.7854L41.6359 18.5433C41.7809 18.4791 41.95 18.5453 42.0137 18.6912L42.4175 19.6151ZM42.8884 23.1235L40.9749 23.9707C40.8255 24.0368 40.6515 23.9685 40.5858 23.8183C40.5202 23.6681 40.5878 23.4928 40.7372 23.4266L42.6507 22.5795C42.8001 22.5133 42.9743 22.5816 43.0399 22.7318C43.1055 22.882 43.0378 23.0574 42.8884 23.1235ZM39.8001 24.4908L37.8867 25.338C37.7374 25.4041 37.5631 25.3359 37.4974 25.1857C37.4318 25.0355 37.4997 24.8601 37.649 24.794L39.5624 23.9468C39.7118 23.8806 39.886 23.9489 39.9516 24.0991C40.0173 24.2493 39.9495 24.4247 39.8001 24.4908ZM35.4073 26.2212C35.6075 26.8066 35.3313 27.4586 34.7581 27.7124C34.6347 27.7671 34.5069 27.7991 34.3795 27.8101C34.3351 27.814 34.2908 27.8153 34.2467 27.814C34.1643 27.8119 34.0827 27.8011 34.0032 27.7822L34.0031 27.7822C33.9978 27.7809 33.9925 27.7796 33.9872 27.7783C33.9868 27.7782 33.9867 27.7781 33.9865 27.7781C33.9592 27.7712 33.9323 27.7634 33.9057 27.7547C33.9055 27.7546 33.9052 27.7544 33.9049 27.7543C33.8997 27.7526 33.8947 27.751 33.8896 27.7492C33.8896 27.7492 33.8892 27.7491 33.8891 27.7489C33.8734 27.7435 33.8577 27.7377 33.8422 27.7317C33.8368 27.7295 33.8314 27.7274 33.826 27.7251L33.8255 27.725C33.8206 27.7229 33.8156 27.721 33.8108 27.7188C33.8104 27.7186 33.8101 27.7184 33.8097 27.7183C33.8047 27.7161 33.7997 27.714 33.7948 27.7118L33.7946 27.7118C33.7791 27.7049 33.7638 27.6977 33.7487 27.6902L33.7484 27.6901C33.7436 27.6878 33.7389 27.6853 33.7341 27.6828C33.7336 27.6826 33.7331 27.6823 33.7327 27.6821C33.7281 27.6797 33.7237 27.6775 33.7192 27.675C33.7188 27.6748 33.7182 27.6746 33.7179 27.6743C33.6983 27.6639 33.6789 27.6529 33.6599 27.6415C33.6594 27.6411 33.6588 27.6407 33.6582 27.6404C33.6541 27.6379 33.65 27.6353 33.6458 27.6327C33.6452 27.6323 33.6445 27.6319 33.6438 27.6315C33.6397 27.6288 33.6354 27.6262 33.6313 27.6235C33.6308 27.6232 33.6305 27.6229 33.6299 27.6227C33.616 27.6136 33.6022 27.6043 33.5885 27.5946C33.588 27.5943 33.5874 27.5938 33.5869 27.5934C33.583 27.5906 33.5792 27.5879 33.5753 27.5851L33.5728 27.5832C33.5692 27.5806 33.5656 27.5778 33.5619 27.5752C33.5611 27.5745 33.5603 27.574 33.5595 27.5734C33.5556 27.5704 33.5516 27.5673 33.5477 27.5643C33.5473 27.5641 33.5469 27.5637 33.5466 27.5636C33.5378 27.5566 33.5289 27.5497 33.5203 27.5426C33.5199 27.5422 33.5196 27.5419 33.5192 27.5415C33.5154 27.5384 33.5117 27.5353 33.5079 27.5322C33.507 27.5315 33.5061 27.5306 33.5052 27.5299C33.502 27.5271 33.4987 27.5243 33.4954 27.5215C33.4945 27.5206 33.4935 27.5198 33.4925 27.5189C33.4892 27.516 33.4859 27.5132 33.4827 27.5102C33.4819 27.5095 33.4811 27.5087 33.4802 27.508C33.4762 27.5045 33.4725 27.5009 33.4685 27.4973L33.4682 27.4971C33.4641 27.4931 33.4599 27.4893 33.4557 27.4853L33.4555 27.4852C33.4517 27.4815 33.4478 27.4779 33.4441 27.4741C33.4431 27.4732 33.4423 27.4724 33.4414 27.4714C33.4384 27.4685 33.4355 27.4656 33.4324 27.4627C33.4314 27.4616 33.4304 27.4604 33.4292 27.4594C33.4264 27.4565 33.4236 27.4536 33.4209 27.4508C33.4199 27.4497 33.4187 27.4486 33.4177 27.4475C33.4148 27.4443 33.4117 27.4412 33.4088 27.438C33.408 27.4373 33.4072 27.4365 33.4064 27.4355C33.3989 27.4276 33.3914 27.4194 33.3841 27.4111C33.3834 27.4102 33.3825 27.4092 33.3817 27.4083C33.379 27.4051 33.3762 27.402 33.3734 27.3988C33.3723 27.3974 33.3713 27.3962 33.3702 27.3949C33.3677 27.392 33.3652 27.3891 33.3627 27.3861C33.3616 27.3847 33.3605 27.3834 33.3593 27.382C33.3569 27.3791 33.3544 27.3761 33.3519 27.373C33.351 27.3718 33.3499 27.3705 33.3489 27.3692C33.346 27.3656 33.3431 27.3622 33.3403 27.3585C33.3397 27.3578 33.3392 27.3571 33.3387 27.3564C33.3352 27.352 33.3317 27.3476 33.3284 27.3431C33.3279 27.3424 33.3273 27.3417 33.3268 27.3409C33.324 27.3373 33.3213 27.3336 33.3186 27.33C33.3176 27.3287 33.3166 27.3272 33.3156 27.3258C33.3133 27.3227 33.3111 27.3197 33.3089 27.3166C33.3077 27.315 33.3066 27.3135 33.3054 27.3118C33.3034 27.3089 33.3013 27.3058 33.2992 27.3029C33.298 27.3012 33.2969 27.2997 33.2958 27.2982C33.2936 27.2949 33.2914 27.2916 33.2892 27.2884C33.2884 27.287 33.2875 27.2857 33.2866 27.2844C33.2804 27.2751 33.2743 27.2659 33.2684 27.2565C33.2676 27.255 33.2667 27.2536 33.2659 27.2522C33.2638 27.2489 33.2618 27.2456 33.2596 27.2422C33.2586 27.2406 33.2575 27.2388 33.2565 27.2371C33.2547 27.234 33.2528 27.231 33.251 27.2278C33.25 27.2261 33.2489 27.2242 33.2479 27.2224C33.246 27.2194 33.2441 27.2161 33.2424 27.2129C33.2414 27.2112 33.2403 27.2095 33.2394 27.2078C33.2373 27.2042 33.2352 27.2004 33.2331 27.1966C33.2325 27.1955 33.2318 27.1944 33.2313 27.1931C33.2286 27.1883 33.2259 27.1833 33.2233 27.1783C33.2226 27.1771 33.222 27.176 33.2214 27.1748C33.2194 27.1711 33.2175 27.1672 33.2155 27.1634C33.2145 27.1616 33.2136 27.1598 33.2128 27.158C33.2112 27.1547 33.2095 27.1514 33.2079 27.1482C33.2069 27.1462 33.206 27.1443 33.205 27.1424C33.2033 27.1391 33.2019 27.1358 33.2003 27.1326C33.1994 27.1308 33.1985 27.1287 33.1976 27.1269C33.1959 27.1234 33.1943 27.1199 33.1927 27.1163C33.1919 27.1147 33.1911 27.113 33.1903 27.1113C33.1881 27.1062 33.1858 27.101 33.1835 27.0958L33.1834 27.0956C33.1812 27.0904 33.1789 27.0852 33.1767 27.0802C33.176 27.0783 33.1753 27.0767 33.1746 27.0749C33.1731 27.0714 33.1717 27.0679 33.1702 27.0642C33.1694 27.0622 33.1686 27.0603 33.1678 27.0583C33.1666 27.0549 33.1651 27.0516 33.1638 27.0482C33.1631 27.0463 33.1623 27.0442 33.1615 27.0422C33.1603 27.0387 33.159 27.0353 33.1577 27.0319C33.1569 27.03 33.1562 27.0281 33.1556 27.0262C33.1541 27.0222 33.1526 27.0182 33.1512 27.0141C33.1508 27.013 33.1503 27.0116 33.1499 27.0103C33.148 27.005 33.1462 26.9997 33.1445 26.9944C33.1439 26.9932 33.1436 26.9919 33.1431 26.9906C33.1418 26.9865 33.1404 26.9824 33.1391 26.9784C33.1385 26.9766 33.138 26.9747 33.1374 26.9728C33.1363 26.9693 33.1352 26.9659 33.1342 26.9623C33.1335 26.9602 33.133 26.9582 33.1323 26.9563C33.1313 26.9528 33.1303 26.9494 33.1293 26.9459C33.1287 26.9441 33.1281 26.9421 33.1276 26.9401C33.1266 26.9363 33.1255 26.9326 33.1246 26.9289C33.1241 26.9272 33.1236 26.9256 33.1231 26.924C33.1202 26.9133 33.1176 26.9025 33.115 26.8917C33.1146 26.8901 33.1143 26.8885 33.1138 26.8869C33.1129 26.8832 33.112 26.8794 33.1111 26.8755C33.1108 26.8736 33.1104 26.8717 33.11 26.8698C33.1092 26.8662 33.1084 26.8626 33.1077 26.8592C33.1073 26.8572 33.1069 26.8553 33.1065 26.8534L33.1043 26.8422C33.1039 26.8405 33.1035 26.8387 33.1032 26.8371C33.1024 26.8326 33.1015 26.8281 33.1008 26.8236C33.1005 26.8228 33.1004 26.8218 33.1003 26.8209C33.0992 26.8154 33.0983 26.8099 33.0975 26.8044C33.0973 26.8035 33.0972 26.8027 33.097 26.8017C33.0963 26.7973 33.0956 26.7926 33.0949 26.7881C33.0947 26.7866 33.0945 26.7849 33.0943 26.7833C33.0937 26.7794 33.0932 26.7756 33.0927 26.7717C33.0924 26.7699 33.0922 26.7681 33.092 26.7664C33.0915 26.7626 33.091 26.7588 33.0906 26.755C33.0904 26.7533 33.0901 26.7517 33.0899 26.7499C33.0894 26.7458 33.089 26.7416 33.0886 26.7374C33.0884 26.7361 33.0883 26.7349 33.0882 26.7337C33.087 26.7227 33.086 26.7116 33.0853 26.7007C33.0852 26.6995 33.0851 26.6983 33.0851 26.6972C33.0847 26.6928 33.0845 26.6885 33.0842 26.6843C33.0841 26.6826 33.0841 26.6812 33.084 26.6797C33.0837 26.6757 33.0834 26.6716 33.0833 26.6677C33.0832 26.666 33.0831 26.6645 33.083 26.663C33.0829 26.6588 33.0828 26.6546 33.0826 26.6504C33.0827 26.6492 33.0825 26.6479 33.0825 26.6467C33.0823 26.6413 33.0822 26.636 33.0821 26.6307C33.0821 26.6307 33.0821 26.6305 33.0822 26.6303C33.0821 26.6246 33.082 26.6188 33.082 26.6132L33.082 26.6128C33.0821 26.6075 33.082 26.6022 33.0821 26.5969C33.0822 26.5958 33.0821 26.5947 33.0822 26.5935C33.0822 26.5892 33.0824 26.5848 33.0825 26.5804C33.0824 26.5791 33.0825 26.5778 33.0825 26.5765C33.0826 26.5722 33.0828 26.5679 33.083 26.5635C33.083 26.5623 33.0831 26.5613 33.0831 26.56C33.0834 26.5551 33.0836 26.5502 33.0839 26.5453C33.0839 26.5448 33.0839 26.5444 33.0839 26.5438C33.0845 26.5326 33.0854 26.5213 33.0863 26.5101C33.0863 26.5098 33.0864 26.5092 33.0866 26.5088C33.0869 26.5038 33.0873 26.4988 33.0878 26.4939C33.0879 26.4928 33.088 26.4919 33.0881 26.4909C33.0887 26.4864 33.0891 26.4818 33.0896 26.4774C33.0897 26.4763 33.0898 26.4754 33.0899 26.4742C33.0905 26.4695 33.0911 26.4647 33.0916 26.4599C33.0917 26.4593 33.0918 26.4587 33.0918 26.4581C33.0941 26.4414 33.0965 26.4248 33.0994 26.4082C33.0995 26.4078 33.0995 26.4073 33.0996 26.4068C33.1004 26.4018 33.1014 26.3969 33.1023 26.3921C33.1024 26.3912 33.1025 26.3905 33.1027 26.3898C33.1036 26.3849 33.1045 26.3801 33.1055 26.3753C33.1056 26.3747 33.1057 26.374 33.1058 26.3735C33.1102 26.3516 33.1154 26.3297 33.1209 26.3082C33.1209 26.3077 33.1211 26.3072 33.1212 26.3068C33.1226 26.3018 33.1238 26.2968 33.1253 26.2919C33.1254 26.2914 33.1255 26.2909 33.1256 26.2904C33.1271 26.2852 33.1286 26.28 33.13 26.2749L33.1302 26.2747C33.1349 26.2583 33.14 26.242 33.1454 26.2259L33.1455 26.2259C33.1472 26.2207 33.149 26.2154 33.1508 26.2102C33.1509 26.2099 33.151 26.2096 33.1511 26.2093C33.1529 26.2042 33.1547 26.1991 33.1565 26.194C33.1567 26.1939 33.1568 26.1935 33.1568 26.1935C33.1646 26.1724 33.1731 26.1514 33.182 26.1306C33.182 26.1306 33.1821 26.1304 33.1821 26.1302C33.1843 26.1252 33.1865 26.1202 33.1887 26.1153C33.1888 26.115 33.189 26.1149 33.189 26.1146C33.2006 26.0889 33.2131 26.0636 33.2265 26.0388C33.2266 26.0385 33.2266 26.0384 33.2268 26.0381C33.2294 26.0333 33.232 26.0284 33.2348 26.0235C33.3571 25.8034 33.5491 25.62 33.796 25.5106C34.3015 25.2868 34.8777 25.4436 35.2081 25.8572C35.2723 25.9378 35.3274 26.0281 35.3707 26.1273C35.3843 26.1584 35.3964 26.1897 35.4073 26.2212ZM33.442 28.2951C33.4369 28.2974 33.432 28.2996 33.4269 28.3017C32.9672 28.4977 32.452 28.3818 32.1174 28.0463C32.0162 27.945 31.9316 27.8235 31.87 27.6845L31.8673 27.6784C31.8396 27.6151 31.8179 27.5508 31.8017 27.486C31.7874 27.429 31.7776 27.3718 31.7719 27.3145L31.7719 27.3144C31.7668 27.2645 31.765 27.2145 31.7662 27.1648C31.7708 26.9874 31.8142 26.814 31.892 26.6568C31.9869 26.4654 32.1328 26.2983 32.3208 26.1786C32.3709 26.1466 32.424 26.1181 32.4799 26.0933C32.6014 26.0395 32.7271 26.0077 32.8524 25.9962C32.9287 25.9892 33.005 25.9897 33.0801 25.9973C33.0597 26.0378 33.0413 26.0791 33.025 26.1212C32.9938 26.2018 32.9703 26.2858 32.955 26.3707C32.9394 26.4566 32.9322 26.5443 32.9334 26.6313C32.936 26.8125 32.9743 26.9889 33.0473 27.156C33.1203 27.323 33.2236 27.4708 33.3545 27.5951C33.4175 27.6548 33.4865 27.7087 33.5599 27.7552C33.6207 27.7938 33.685 27.8277 33.7516 27.8561C33.7643 27.8615 33.777 27.8668 33.79 27.8718C33.8318 27.8882 33.8745 27.9025 33.9179 27.9147C33.7985 28.0755 33.6376 28.2085 33.442 28.2951ZM40.3479 16.5671L29.2194 21.4942C28.7073 21.7209 28.4364 22.2714 28.5396 22.8019C28.556 22.8861 28.5818 22.9698 28.6175 23.0516L31.4922 29.6306C31.5093 29.6697 31.5283 29.7075 31.5489 29.7438C31.6243 29.8762 31.7224 29.9893 31.836 30.0799C31.8541 30.0944 31.8724 30.1082 31.8912 30.1215C32.0213 30.2133 32.1684 30.2777 32.3234 30.3109C32.5558 30.3608 32.8052 30.3402 33.0393 30.2365L44.1679 25.3094C44.7614 25.0466 45.0308 24.3493 44.7698 23.7519L41.8952 17.173C41.6341 16.5756 40.9414 16.3043 40.3479 16.5671Z" fill="#F0F0F0"/>
<path d="M36.4757 45.9878C36.4571 46.1461 36.5697 46.2895 36.7269 46.3081L37.7228 46.4256C37.8799 46.4442 38.0224 46.331 38.0409 46.1727L38.8208 39.4826L39.4715 38.6036C39.5963 38.435 39.6846 38.2467 39.734 38.0437C39.7816 37.848 39.7911 37.6472 39.762 37.4471C39.733 37.2469 39.667 37.0573 39.5657 36.8834C39.465 36.7106 39.3339 36.5609 39.1756 36.4382L39.5484 33.2416C39.5668 33.0832 39.4543 32.9398 39.2971 32.9213L38.3013 32.8036C38.144 32.7851 38.0016 32.8984 37.9832 33.0567L37.7166 35.3434L36.9759 34.7879L36.5493 34.4678L36.2196 34.2205C36.2005 33.6359 35.7594 33.1373 35.1647 33.0671C35.0121 33.049 34.8629 33.0608 34.7228 33.0977L33.4299 32.1279C33.2912 32.0238 33.139 31.9451 32.9764 31.8929C33.184 31.7766 33.4285 31.7226 33.6825 31.7526L37.5463 32.209L38.0747 32.2715L40.0987 32.5105L40.7739 32.5903C41.4178 32.6663 41.8786 33.2534 41.803 33.9016L40.386 46.0559C40.3105 46.7041 39.7272 47.168 39.0832 47.0918L38.4081 47.0121L36.3841 46.7731L35.8557 46.7107L33.6618 46.4515L36.9374 42.0266L36.4757 45.9878Z" fill="#F0F0F0"/>
<path d="M28.6129 46.5678L29.4169 47.1709C29.5438 47.266 29.7234 47.2398 29.818 47.1119L30.7694 45.8268L31.0247 45.4821L33.8167 41.7105L34.8167 41.2768C35.0085 41.1937 35.1786 41.0751 35.3222 40.9242C35.4606 40.7786 35.5686 40.6095 35.6428 40.4215C35.7171 40.2337 35.7541 40.0361 35.7526 39.8345C35.7514 39.6344 35.7122 39.4387 35.6361 39.2528L37.5468 36.6719C37.5536 36.6628 37.5596 36.6534 37.5651 36.6438C37.6056 36.5734 37.6135 36.4913 37.5916 36.4171C37.5747 36.3595 37.5397 36.3067 37.4882 36.2681L36.6842 35.665C36.5573 35.5698 36.3776 35.5962 36.2831 35.7239L35.9636 36.1554L35.6093 36.634L35.6092 36.6341L34.9163 37.5703L34.1776 35.8444C34.3685 35.4849 34.3611 35.0585 34.1765 34.7111C34.1534 34.6672 34.1272 34.6246 34.0983 34.5836C34.0276 34.4832 33.9403 34.3919 33.8369 34.3145C33.8351 34.3131 33.8333 34.3118 33.8315 34.3105C33.7099 34.2203 33.5768 34.1566 33.4391 34.1188L32.8011 32.6281C32.7435 32.4934 32.6686 32.3692 32.5778 32.2575C32.5607 32.2365 32.5431 32.2161 32.5251 32.1961C32.5563 32.1966 32.5874 32.1984 32.6185 32.2014C32.8247 32.2213 33.0281 32.2965 33.2064 32.4302L34.3373 33.2785L36.1583 34.6445L36.3257 34.7701L36.7523 35.0901L37.6663 35.7757L38.3864 36.3158L38.9316 36.7248C39.0028 36.7781 39.0662 36.838 39.1216 36.9032C39.4715 37.3133 39.5058 37.9267 39.1713 38.3783L38.9083 38.7338L37.0249 41.2779L33.2325 46.4007L32.9741 46.7498L31.9071 48.1912C31.5197 48.7145 30.7842 48.8225 30.2643 48.4325L29.7191 48.0238L28.0851 46.798L27.6584 46.4779L25.8871 45.1492L30.922 42.9658L30.7967 43.1351L28.5543 46.164C28.4597 46.2919 28.4861 46.4726 28.6129 46.5678Z" fill="#F0F0F0"/>
<path d="M21.489 42.3731C21.3439 42.437 21.2779 42.6072 21.3414 42.7532L21.7439 43.6776C21.8073 43.8235 21.9763 43.8901 22.1214 43.8261L28.2508 41.1231L29.3331 41.2442C29.5407 41.2674 29.7468 41.249 29.9457 41.1893C30.1376 41.1318 30.3145 41.0386 30.4714 40.9122C30.6283 40.7858 30.7575 40.6326 30.8554 40.4568C30.9527 40.282 31.0148 40.0925 31.04 39.893L33.9687 38.6016C34.1138 38.5376 34.1798 38.3674 34.1163 38.2214L33.714 37.297C33.6504 37.151 33.4813 37.0846 33.3363 37.1485L31.2413 38.0724L31.3433 37.1483L31.402 36.616L31.4475 36.2047C31.939 35.8927 32.1435 35.2576 31.9032 34.7055C31.8416 34.5638 31.7561 34.4402 31.6537 34.3371L31.8318 32.724C31.8509 32.551 31.8416 32.379 31.8041 32.2113C32.0087 32.3329 32.1786 32.518 32.2812 32.7538L33.8422 36.3407L34.0557 36.8313L34.8735 38.7102L35.1463 39.337C35.4065 39.9348 35.136 40.6317 34.5421 40.8936L23.4065 45.8042C22.8127 46.0661 22.1203 45.7939 21.8601 45.196L21.5873 44.5693L20.7696 42.6903L20.5561 42.1998L19.6696 40.1631L25.1182 40.7726L21.489 42.3731Z" fill="#F0F0F0"/>
<path d="M17.0189 35.836L16.9081 36.8391C16.8907 36.9975 17.0039 37.1402 17.1614 37.1577L18.7438 37.3348L19.1683 37.3824L23.8124 37.9019L24.6895 38.5514C24.8577 38.676 25.0453 38.7639 25.2472 38.8123C25.4419 38.859 25.6415 38.8673 25.8402 38.8369C26.0388 38.8065 26.2268 38.7388 26.3989 38.6357C26.5698 38.5335 26.7177 38.4005 26.8387 38.2405L30.0167 38.5961C30.0279 38.5974 30.039 38.5979 30.0501 38.5978C30.1308 38.5975 30.2052 38.5627 30.2577 38.5063C30.2986 38.4625 30.3262 38.4054 30.3333 38.3411L30.444 37.338C30.4615 37.1797 30.3481 37.0369 30.1908 37.0193L29.6595 36.9599L29.0702 36.8939L29.07 36.8939L27.9173 36.765L29.0237 35.2513C29.4283 35.2355 29.7901 35.0136 29.9946 34.6777C30.0206 34.6354 30.0439 34.5912 30.0645 34.5454C30.1148 34.4332 30.1489 34.3112 30.1631 34.1823C30.1633 34.18 30.1635 34.1778 30.1637 34.1756C30.1797 34.0244 30.167 33.8766 30.1298 33.7378L31.0854 32.4304C31.1718 32.3123 31.2404 32.1845 31.2903 32.0491C31.2996 32.0238 31.3082 31.9982 31.3162 31.9724C31.3316 31.9997 31.3458 32.0277 31.3589 32.0562C31.446 32.2453 31.4844 32.4601 31.4598 32.6824L31.3041 34.0935L31.0531 36.3655L31.0301 36.5744L30.9713 37.1067L30.8454 38.2471L30.7462 39.1455L30.6711 39.8257C30.6613 39.9145 30.642 39.9998 30.6142 40.0809C30.4394 40.5921 29.9308 40.9318 29.3747 40.8695L28.937 40.8206L25.8044 40.4701L19.4964 39.7644L19.0666 39.7163L17.2918 39.5177C16.6474 39.4457 16.1832 38.8614 16.2547 38.2127L16.3297 37.5326L16.5549 35.4938L16.6137 34.9615L16.8577 32.7514L21.2736 36.0217L21.0652 35.9984L17.3355 35.581C17.1781 35.5635 17.0364 35.6777 17.0189 35.836Z" fill="#F0F0F0"/>
<path d="M15.8574 11.8507C20.0155 8.53679 25.272 6.55772 30.9876 6.55772C36.703 6.55772 41.9595 8.53637 46.1179 11.8507" stroke="#F0F0F0" stroke-width="1.5" stroke-miterlimit="10"/>
<path d="M9.45793 42.6646C7.63062 39.2213 6.59473 35.2884 6.59473 31.1119C6.59473 24.8821 8.89948 19.194 12.6975 14.8652" stroke="#F0F0F0" stroke-width="1.5" stroke-miterlimit="10"/>
<path d="M43.9398 51.9221C40.1865 54.2942 35.7459 55.6657 30.9872 55.6657C23.7043 55.6657 17.1668 52.4529 12.6973 47.3585" stroke="#F0F0F0" stroke-width="1.5" stroke-miterlimit="10"/>
<path d="M49.8086 15.4905C53.2896 19.7354 55.3805 25.1776 55.3805 31.1119C55.3805 38.0092 52.5554 44.2424 48.0059 48.7027" stroke="#F0F0F0" stroke-width="1.5" stroke-miterlimit="10"/>
<path d="M2.52734 23.9191C5.3575 12.5363 14.7505 3.77178 26.4241 1.93671" stroke="#F0F0F0" stroke-width="1.5" stroke-miterlimit="10"/>
<path d="M21.8221 59.1723C10.1088 55.2981 1.65137 44.199 1.65137 31.1119C1.65137 30.4871 1.67063 29.8669 1.70862 29.2517" stroke="#F0F0F0" stroke-width="1.5" stroke-miterlimit="10"/>
<path d="M60.3205 30.663C60.3231 30.8123 60.324 30.9619 60.324 31.1119C60.324 47.4209 47.1898 60.6425 30.9876 60.6425C29.7862 60.6425 28.6016 60.5695 27.438 60.4283" stroke="#F0F0F0" stroke-width="1.5" stroke-miterlimit="10"/>
<path d="M32.9307 1.64534C46.1485 2.51522 56.9781 12.1977 59.6762 24.9129" stroke="#F0F0F0" stroke-width="1.5" stroke-miterlimit="10"/>
<path d="M45.0327 51.5005C45.0327 51.8563 44.7462 52.1451 44.3923 52.1451C44.0384 52.1451 43.7515 51.8563 43.7515 51.5005C43.7515 51.1442 44.0384 50.8554 44.3923 50.8554C44.7462 50.8554 45.0327 51.1442 45.0327 51.5005Z" stroke="#F0F0F0" stroke-width="1.5" stroke-miterlimit="10"/>
<path d="M61.0001 30.0205C61.0001 30.3767 60.7131 30.6653 60.3594 30.6653C60.0058 30.6653 59.7188 30.3767 59.7188 30.0205C59.7188 29.6643 60.0058 29.3756 60.3594 29.3756C60.7131 29.3756 61.0001 29.6643 61.0001 30.0205Z" stroke="#F0F0F0" stroke-width="1.5" stroke-miterlimit="10"/>
<path d="M32.9097 1.64499C32.9097 2.00095 32.6228 2.28998 32.2693 2.28998C31.9153 2.28998 31.6284 2.00095 31.6284 1.64499C31.6284 1.28858 31.9153 0.999994 32.2693 0.999994C32.6228 0.999994 32.9097 1.28858 32.9097 1.64499Z" stroke="#F0F0F0" stroke-width="1.5" stroke-miterlimit="10"/>
<path d="M50.0103 14.8901C50.0103 15.2464 49.7234 15.5352 49.3694 15.5352C49.0159 15.5352 48.729 15.2464 48.729 14.8901C48.729 14.5339 49.0159 14.2455 49.3694 14.2455C49.7234 14.2455 50.0103 14.5339 50.0103 14.8901Z" stroke="#F0F0F0" stroke-width="1.5" stroke-miterlimit="10"/>
<path d="M15.8584 12.2609C15.8584 12.6172 15.5716 12.906 15.2178 12.906C14.864 12.906 14.5771 12.6172 14.5771 12.2609C14.5771 11.9047 14.864 11.6163 15.2178 11.6163C15.5716 11.6163 15.8584 11.9047 15.8584 12.2609Z" stroke="#F0F0F0" stroke-width="1.5" stroke-miterlimit="10"/>
<path d="M3.09478 24.514C3.09478 24.8703 2.80795 25.1591 2.45411 25.1591C2.1003 25.1591 1.81348 24.8703 1.81348 24.514C1.81348 24.1577 2.1003 23.8689 2.45411 23.8689C2.80795 23.8689 3.09478 24.1577 3.09478 24.514Z" stroke="#F0F0F0" stroke-width="1.5" stroke-miterlimit="10"/>
<path d="M10.4864 43.2162C10.4864 43.572 10.1996 43.8608 9.84575 43.8608C9.49195 43.8608 9.20508 43.572 9.20508 43.2162C9.20508 42.8599 9.49195 42.5711 9.84575 42.5711C10.1996 42.5711 10.4864 42.8599 10.4864 43.2162Z" stroke="#F0F0F0" stroke-width="1.5" stroke-miterlimit="10"/>
<path d="M23.0538 59.3877C23.0538 59.744 22.767 60.0328 22.4131 60.0328C22.0593 60.0328 21.7725 59.744 21.7725 59.3877C21.7725 59.0319 22.0593 58.7431 22.4131 58.7431C22.767 58.7431 23.0538 59.0319 23.0538 59.3877Z" stroke="#F0F0F0" stroke-width="1.5" stroke-miterlimit="10"/>
<path d="M13.1724 14.915C13.1724 15.2713 12.8856 15.5601 12.5317 15.5601C12.1779 15.5601 11.8911 15.2713 11.8911 14.915C11.8911 14.5588 12.1779 14.27 12.5317 14.27C12.8856 14.27 13.1724 14.5588 13.1724 14.915Z" fill="#F0F0F0"/>
<path d="M2.2813 29.4005C2.2813 29.7564 1.99447 30.0452 1.64067 30.0452C1.28683 30.0452 1 29.7564 1 29.4005C1 29.0443 1.28683 28.7555 1.64067 28.7555C1.99447 28.7555 2.2813 29.0443 2.2813 29.4005Z" fill="#F0F0F0"/>
<path d="M48.6548 48.6976C48.6548 49.0539 48.3683 49.3423 48.0144 49.3423C47.6604 49.3423 47.3735 49.0539 47.3735 48.6976C47.3735 48.3414 47.6604 48.0526 48.0144 48.0526C48.3683 48.0526 48.6548 48.3414 48.6548 48.6976Z" fill="#F0F0F0"/>
<path d="M13.3204 47.3581C13.3204 47.7144 13.0336 48.0032 12.6797 48.0032C12.3259 48.0032 12.0391 47.7144 12.0391 47.3581C12.0391 47.0019 12.3259 46.7135 12.6797 46.7135C13.0336 46.7135 13.3204 47.0019 13.3204 47.3581Z" fill="#F0F0F0"/>
<path d="M28.0059 60.3553C28.0059 60.7116 27.7191 61 27.3652 61C27.0114 61 26.7246 60.7116 26.7246 60.3553C26.7246 59.9991 27.0114 59.7103 27.3652 59.7103C27.7191 59.7103 28.0059 59.9991 28.0059 60.3553Z" fill="#F0F0F0"/>
<path d="M60.335 24.6876C60.335 25.0438 60.048 25.3327 59.6941 25.3327C59.3402 25.3327 59.0532 25.0438 59.0532 24.6876C59.0532 24.3314 59.3402 24.0429 59.6941 24.0429C60.048 24.0429 60.335 24.3314 60.335 24.6876Z" fill="#F0F0F0"/>
<path d="M46.7822 11.8393C46.7822 12.1956 46.4957 12.4844 46.1418 12.4844C45.7879 12.4844 45.501 12.1956 45.501 11.8393C45.501 11.4831 45.7879 11.1947 46.1418 11.1947C46.4957 11.1947 46.7822 11.4831 46.7822 11.8393Z" fill="#F0F0F0"/>
<path d="M27.0699 1.9176C27.0699 2.27399 26.7831 2.56281 26.4292 2.56281C26.0755 2.56281 25.7886 2.27399 25.7886 1.9176C25.7886 1.56166 26.0755 1.27284 26.4292 1.27284C26.7831 1.27284 27.0699 1.56166 27.0699 1.9176Z" fill="#F0F0F0"/>
</g>
</svg>
