<svg width="160" height="200" viewBox="0 0 160 200" fill="none" xmlns="http://www.w3.org/2000/svg">
<path d="M27.4168 103.083H-11.6665C-10.9998 142 -3.33315 148.417 20.5835 162.583C23.3335 164.25 24.2502 167.75 22.5835 170.583C20.9169 173.333 17.4168 174.25 14.5835 172.583C-13.5832 155.917 -23.4165 145.75 -23.4165 97.2499V52.3333C-23.4165 38.0833 -11.8332 26.5833 2.33352 26.5833H27.3335C42.0002 26.5833 53.0835 37.6666 53.0835 52.3333V77.3332C53.1669 91.9999 42.0835 103.083 27.4168 103.083Z" fill="#808B96" fill-opacity="0.15"/>
<path d="M117.583 103.083H78.5002C79.1668 142 86.8335 148.417 110.75 162.583C113.5 164.25 114.417 167.75 112.75 170.583C111.083 173.333 107.583 174.25 104.75 172.583C76.5835 155.917 66.7502 145.75 66.7502 97.2499V52.3333C66.7502 38.0833 78.3335 26.5833 92.5002 26.5833H117.5C132.25 26.5833 143.333 37.6666 143.333 52.3333V77.3332C143.333 91.9999 132.25 103.083 117.583 103.083Z" fill="#808B96" fill-opacity="0.15"/>
</svg>
