<svg width="120" height="24" viewBox="0 0 120 24" fill="none" xmlns="http://www.w3.org/2000/svg">
<path d="M17.6601 22.6701C17.1301 22.6701 16.4501 22.5001 15.6001 22.0001L12.6101 20.2301C12.3001 20.0501 11.7001 20.0501 11.4001 20.2301L8.40012 22.0001C6.63012 23.0501 5.59012 22.6301 5.12012 22.2901C4.66012 21.9501 3.94012 21.0801 4.41012 19.0801L5.12012 16.0101C5.20012 15.6901 5.04012 15.1401 4.80012 14.9001L2.32012 12.4201C1.08012 11.1801 1.18012 10.1201 1.35012 9.60007C1.52012 9.08007 2.06012 8.16007 3.78012 7.87007L6.97012 7.34007C7.27012 7.29007 7.70012 6.97007 7.83012 6.70007L9.60012 3.17007C10.4001 1.56007 11.4501 1.32007 12.0001 1.32007C12.5501 1.32007 13.6001 1.56007 14.4001 3.17007L16.1601 6.69007C16.3001 6.96007 16.7301 7.28007 17.0301 7.33007L20.2201 7.86007C21.9501 8.15007 22.4901 9.07007 22.6501 9.59007C22.8101 10.1101 22.9101 11.1701 21.6801 12.4101L19.2001 14.9001C18.9601 15.1401 18.8101 15.6801 18.8801 16.0101L19.5901 19.0801C20.0501 21.0801 19.3401 21.9501 18.8801 22.2901C18.6301 22.4701 18.2301 22.6701 17.6601 22.6701ZM12.0001 18.5901C12.4901 18.5901 12.9801 18.7101 13.3701 18.9401L16.3601 20.7101C17.2301 21.2301 17.7801 21.2301 17.9901 21.0801C18.2001 20.9301 18.3501 20.4001 18.1301 19.4201L17.4201 16.3501C17.2301 15.5201 17.5401 14.4501 18.1401 13.8401L20.6201 11.3601C21.1101 10.8701 21.3301 10.3901 21.2301 10.0601C21.1201 9.73007 20.6601 9.46007 19.9801 9.35007L16.7901 8.82007C16.0201 8.69007 15.1801 8.07007 14.8301 7.37007L13.0701 3.85007C12.7501 3.21007 12.3501 2.83007 12.0001 2.83007C11.6501 2.83007 11.2501 3.21007 10.9401 3.85007L9.17012 7.37007C8.82012 8.07007 7.98012 8.69007 7.21012 8.82007L4.03012 9.35007C3.35012 9.46007 2.89012 9.73007 2.78012 10.0601C2.67012 10.3901 2.90012 10.8801 3.39012 11.3601L5.87012 13.8401C6.47012 14.4401 6.78012 15.5201 6.59012 16.3501L5.88012 19.4201C5.65012 20.4101 5.81012 20.9301 6.02012 21.0801C6.23012 21.2301 6.77012 21.2201 7.65012 20.7101L10.6401 18.9401C11.0201 18.7101 11.5101 18.5901 12.0001 18.5901Z" fill="#292D32" fill-opacity="0.01"/>
<path d="M12.0001 18.5901C12.4901 18.5901 12.9801 18.7101 13.3701 18.9401L16.3601 20.7101C17.2301 21.2301 17.7801 21.2301 17.9901 21.0801C18.2001 20.9301 18.3501 20.4001 18.1301 19.4201L17.4201 16.3501C17.2301 15.5201 17.5401 14.4501 18.1401 13.8401L20.6201 11.3601C21.1101 10.8701 21.3301 10.3901 21.2301 10.0601C21.1201 9.73007 20.6601 9.46007 19.9801 9.35007L16.7901 8.82007C16.0201 8.69007 15.1801 8.07007 14.8301 7.37007L13.0701 3.85007C12.7501 3.21007 12.3501 2.83007 12.0001 2.83007C11.6501 2.83007 11.2501 3.21007 10.9401 3.85007L9.17012 7.37007C8.82012 8.07007 7.98012 8.69007 7.21012 8.82007L4.03012 9.35007C3.35012 9.46007 2.89012 9.73007 2.78012 10.0601C2.67012 10.3901 2.90012 10.8801 3.39012 11.3601L5.87012 13.8401C6.47012 14.4401 6.78012 15.5201 6.59012 16.3501L5.88012 19.4201C5.65012 20.4101 5.81012 20.9301 6.02012 21.0801C6.23012 21.2301 6.77012 21.2201 7.65012 20.7101L10.6401 18.9401C11.0201 18.7101 11.5101 18.5901 12.0001 18.5901Z" fill="#E6E2E2"/>
<path d="M41.6601 22.6701C41.1301 22.6701 40.4501 22.5001 39.6001 22.0001L36.6101 20.2301C36.3001 20.0501 35.7001 20.0501 35.4001 20.2301L32.4001 22.0001C30.6301 23.0501 29.5901 22.6301 29.1201 22.2901C28.6601 21.9501 27.9401 21.0801 28.4101 19.0801L29.1201 16.0101C29.2001 15.6901 29.0401 15.1401 28.8001 14.9001L26.3201 12.4201C25.0801 11.1801 25.1801 10.1201 25.3501 9.60007C25.5201 9.08007 26.0601 8.16007 27.7801 7.87007L30.9701 7.34007C31.2701 7.29007 31.7001 6.97007 31.8301 6.70007L33.6001 3.17007C34.4001 1.56007 35.4501 1.32007 36.0001 1.32007C36.5501 1.32007 37.6001 1.56007 38.4001 3.17007L40.1601 6.69007C40.3001 6.96007 40.7301 7.28007 41.0301 7.33007L44.2201 7.86007C45.9501 8.15007 46.4901 9.07007 46.6501 9.59007C46.8101 10.1101 46.9101 11.1701 45.6801 12.4101L43.2001 14.9001C42.9601 15.1401 42.8101 15.6801 42.8801 16.0101L43.5901 19.0801C44.0501 21.0801 43.3401 21.9501 42.8801 22.2901C42.6301 22.4701 42.2301 22.6701 41.6601 22.6701ZM36.0001 18.5901C36.4901 18.5901 36.9801 18.7101 37.3701 18.9401L40.3601 20.7101C41.2301 21.2301 41.7801 21.2301 41.9901 21.0801C42.2001 20.9301 42.3501 20.4001 42.1301 19.4201L41.4201 16.3501C41.2301 15.5201 41.5401 14.4501 42.1401 13.8401L44.6201 11.3601C45.1101 10.8701 45.3301 10.3901 45.2301 10.0601C45.1201 9.73007 44.6601 9.46007 43.9801 9.35007L40.7901 8.82007C40.0201 8.69007 39.1801 8.07007 38.8301 7.37007L37.0701 3.85007C36.7501 3.21007 36.3501 2.83007 36.0001 2.83007C35.6501 2.83007 35.2501 3.21007 34.9401 3.85007L33.1701 7.37007C32.8201 8.07007 31.9801 8.69007 31.2101 8.82007L28.0301 9.35007C27.3501 9.46007 26.8901 9.73007 26.7801 10.0601C26.6701 10.3901 26.9001 10.8801 27.3901 11.3601L29.8701 13.8401C30.4701 14.4401 30.7801 15.5201 30.5901 16.3501L29.8801 19.4201C29.6501 20.4101 29.8101 20.9301 30.0201 21.0801C30.2301 21.2301 30.7701 21.2201 31.6501 20.7101L34.6401 18.9401C35.0201 18.7101 35.5101 18.5901 36.0001 18.5901Z" fill="#292D32" fill-opacity="0.01"/>
<path d="M36.0001 18.5901C36.4901 18.5901 36.9801 18.7101 37.3701 18.9401L40.3601 20.7101C41.2301 21.2301 41.7801 21.2301 41.9901 21.0801C42.2001 20.9301 42.3501 20.4001 42.1301 19.4201L41.4201 16.3501C41.2301 15.5201 41.5401 14.4501 42.1401 13.8401L44.6201 11.3601C45.1101 10.8701 45.3301 10.3901 45.2301 10.0601C45.1201 9.73007 44.6601 9.46007 43.9801 9.35007L40.7901 8.82007C40.0201 8.69007 39.1801 8.07007 38.8301 7.37007L37.0701 3.85007C36.7501 3.21007 36.3501 2.83007 36.0001 2.83007C35.6501 2.83007 35.2501 3.21007 34.9401 3.85007L33.1701 7.37007C32.8201 8.07007 31.9801 8.69007 31.2101 8.82007L28.0301 9.35007C27.3501 9.46007 26.8901 9.73007 26.7801 10.0601C26.6701 10.3901 26.9001 10.8801 27.3901 11.3601L29.8701 13.8401C30.4701 14.4401 30.7801 15.5201 30.5901 16.3501L29.8801 19.4201C29.6501 20.4101 29.8101 20.9301 30.0201 21.0801C30.2301 21.2301 30.7701 21.2201 31.6501 20.7101L34.6401 18.9401C35.0201 18.7101 35.5101 18.5901 36.0001 18.5901Z" fill="#E6E2E2"/>
<path d="M65.6601 22.6701C65.1301 22.6701 64.4501 22.5001 63.6001 22.0001L60.6101 20.2301C60.3001 20.0501 59.7001 20.0501 59.4001 20.2301L56.4001 22.0001C54.6301 23.0501 53.5901 22.6301 53.1201 22.2901C52.6601 21.9501 51.9401 21.0801 52.4101 19.0801L53.1201 16.0101C53.2001 15.6901 53.0401 15.1401 52.8001 14.9001L50.3201 12.4201C49.0801 11.1801 49.1801 10.1201 49.3501 9.60007C49.5201 9.08007 50.0601 8.16007 51.7801 7.87007L54.9701 7.34007C55.2701 7.29007 55.7001 6.97007 55.8301 6.70007L57.6001 3.17007C58.4001 1.56007 59.4501 1.32007 60.0001 1.32007C60.5501 1.32007 61.6001 1.56007 62.4001 3.17007L64.1601 6.69007C64.3001 6.96007 64.7301 7.28007 65.0301 7.33007L68.2201 7.86007C69.9501 8.15007 70.4901 9.07007 70.6501 9.59007C70.8101 10.1101 70.9101 11.1701 69.6801 12.4101L67.2001 14.9001C66.9601 15.1401 66.8101 15.6801 66.8801 16.0101L67.5901 19.0801C68.0501 21.0801 67.3401 21.9501 66.8801 22.2901C66.6301 22.4701 66.2301 22.6701 65.6601 22.6701ZM60.0001 18.5901C60.4901 18.5901 60.9801 18.7101 61.3701 18.9401L64.3601 20.7101C65.2301 21.2301 65.7801 21.2301 65.9901 21.0801C66.2001 20.9301 66.3501 20.4001 66.1301 19.4201L65.4201 16.3501C65.2301 15.5201 65.5401 14.4501 66.1401 13.8401L68.6201 11.3601C69.1101 10.8701 69.3301 10.3901 69.2301 10.0601C69.1201 9.73007 68.6601 9.46007 67.9801 9.35007L64.7901 8.82007C64.0201 8.69007 63.1801 8.07007 62.8301 7.37007L61.0701 3.85007C60.7501 3.21007 60.3501 2.83007 60.0001 2.83007C59.6501 2.83007 59.2501 3.21007 58.9401 3.85007L57.1701 7.37007C56.8201 8.07007 55.9801 8.69007 55.2101 8.82007L52.0301 9.35007C51.3501 9.46007 50.8901 9.73007 50.7801 10.0601C50.6701 10.3901 50.9001 10.8801 51.3901 11.3601L53.8701 13.8401C54.4701 14.4401 54.7801 15.5201 54.5901 16.3501L53.8801 19.4201C53.6501 20.4101 53.8101 20.9301 54.0201 21.0801C54.2301 21.2301 54.7701 21.2201 55.6501 20.7101L58.6401 18.9401C59.0201 18.7101 59.5101 18.5901 60.0001 18.5901Z" fill="#292D32" fill-opacity="0.01"/>
<path d="M60.0001 18.5901C60.4901 18.5901 60.9801 18.7101 61.3701 18.9401L64.3601 20.7101C65.2301 21.2301 65.7801 21.2301 65.9901 21.0801C66.2001 20.9301 66.3501 20.4001 66.1301 19.4201L65.4201 16.3501C65.2301 15.5201 65.5401 14.4501 66.1401 13.8401L68.6201 11.3601C69.1101 10.8701 69.3301 10.3901 69.2301 10.0601C69.1201 9.73007 68.6601 9.46007 67.9801 9.35007L64.7901 8.82007C64.0201 8.69007 63.1801 8.07007 62.8301 7.37007L61.0701 3.85007C60.7501 3.21007 60.3501 2.83007 60.0001 2.83007C59.6501 2.83007 59.2501 3.21007 58.9401 3.85007L57.1701 7.37007C56.8201 8.07007 55.9801 8.69007 55.2101 8.82007L52.0301 9.35007C51.3501 9.46007 50.8901 9.73007 50.7801 10.0601C50.6701 10.3901 50.9001 10.8801 51.3901 11.3601L53.8701 13.8401C54.4701 14.4401 54.7801 15.5201 54.5901 16.3501L53.8801 19.4201C53.6501 20.4101 53.8101 20.9301 54.0201 21.0801C54.2301 21.2301 54.7701 21.2201 55.6501 20.7101L58.6401 18.9401C59.0201 18.7101 59.5101 18.5901 60.0001 18.5901Z" fill="#E6E2E2"/>
<path d="M89.6601 22.6701C89.1301 22.6701 88.4501 22.5001 87.6001 22.0001L84.6101 20.2301C84.3001 20.0501 83.7001 20.0501 83.4001 20.2301L80.4001 22.0001C78.6301 23.0501 77.5901 22.6301 77.1201 22.2901C76.6601 21.9501 75.9401 21.0801 76.4101 19.0801L77.1201 16.0101C77.2001 15.6901 77.0401 15.1401 76.8001 14.9001L74.3201 12.4201C73.0801 11.1801 73.1801 10.1201 73.3501 9.60007C73.5201 9.08007 74.0601 8.16007 75.7801 7.87007L78.9701 7.34007C79.2701 7.29007 79.7001 6.97007 79.8301 6.70007L81.6001 3.17007C82.4001 1.56007 83.4501 1.32007 84.0001 1.32007C84.5501 1.32007 85.6001 1.56007 86.4001 3.17007L88.1601 6.69007C88.3001 6.96007 88.7301 7.28007 89.0301 7.33007L92.2201 7.86007C93.9501 8.15007 94.4901 9.07007 94.6501 9.59007C94.8101 10.1101 94.9101 11.1701 93.6801 12.4101L91.2001 14.9001C90.9601 15.1401 90.8101 15.6801 90.8801 16.0101L91.5901 19.0801C92.0501 21.0801 91.3401 21.9501 90.8801 22.2901C90.6301 22.4701 90.2301 22.6701 89.6601 22.6701ZM84.0001 18.5901C84.4901 18.5901 84.9801 18.7101 85.3701 18.9401L88.3601 20.7101C89.2301 21.2301 89.7801 21.2301 89.9901 21.0801C90.2001 20.9301 90.3501 20.4001 90.1301 19.4201L89.4201 16.3501C89.2301 15.5201 89.5401 14.4501 90.1401 13.8401L92.6201 11.3601C93.1101 10.8701 93.3301 10.3901 93.2301 10.0601C93.1201 9.73007 92.6601 9.46007 91.9801 9.35007L88.7901 8.82007C88.0201 8.69007 87.1801 8.07007 86.8301 7.37007L85.0701 3.85007C84.7501 3.21007 84.3501 2.83007 84.0001 2.83007C83.6501 2.83007 83.2501 3.21007 82.9401 3.85007L81.1701 7.37007C80.8201 8.07007 79.9801 8.69007 79.2101 8.82007L76.0301 9.35007C75.3501 9.46007 74.8901 9.73007 74.7801 10.0601C74.6701 10.3901 74.9001 10.8801 75.3901 11.3601L77.8701 13.8401C78.4701 14.4401 78.7801 15.5201 78.5901 16.3501L77.8801 19.4201C77.6501 20.4101 77.8101 20.9301 78.0201 21.0801C78.2301 21.2301 78.7701 21.2201 79.6501 20.7101L82.6401 18.9401C83.0201 18.7101 83.5101 18.5901 84.0001 18.5901Z" fill="#292D32" fill-opacity="0.01"/>
<path d="M84.0001 18.5901C84.4901 18.5901 84.9801 18.7101 85.3701 18.9401L88.3601 20.7101C89.2301 21.2301 89.7801 21.2301 89.9901 21.0801C90.2001 20.9301 90.3501 20.4001 90.1301 19.4201L89.4201 16.3501C89.2301 15.5201 89.5401 14.4501 90.1401 13.8401L92.6201 11.3601C93.1101 10.8701 93.3301 10.3901 93.2301 10.0601C93.1201 9.73007 92.6601 9.46007 91.9801 9.35007L88.7901 8.82007C88.0201 8.69007 87.1801 8.07007 86.8301 7.37007L85.0701 3.85007C84.7501 3.21007 84.3501 2.83007 84.0001 2.83007C83.6501 2.83007 83.2501 3.21007 82.9401 3.85007L81.1701 7.37007C80.8201 8.07007 79.9801 8.69007 79.2101 8.82007L76.0301 9.35007C75.3501 9.46007 74.8901 9.73007 74.7801 10.0601C74.6701 10.3901 74.9001 10.8801 75.3901 11.3601L77.8701 13.8401C78.4701 14.4401 78.7801 15.5201 78.5901 16.3501L77.8801 19.4201C77.6501 20.4101 77.8101 20.9301 78.0201 21.0801C78.2301 21.2301 78.7701 21.2201 79.6501 20.7101L82.6401 18.9401C83.0201 18.7101 83.5101 18.5901 84.0001 18.5901Z" fill="#E6E2E2"/>
<path d="M113.66 22.6701C113.13 22.6701 112.45 22.5001 111.6 22.0001L108.61 20.2301C108.3 20.0501 107.7 20.0501 107.4 20.2301L104.4 22.0001C102.63 23.0501 101.59 22.6301 101.12 22.2901C100.66 21.9501 99.9401 21.0801 100.41 19.0801L101.12 16.0101C101.2 15.6901 101.04 15.1401 100.8 14.9001L98.3201 12.4201C97.0801 11.1801 97.1801 10.1201 97.3501 9.60007C97.5201 9.08007 98.0601 8.16007 99.7801 7.87007L102.97 7.34007C103.27 7.29007 103.7 6.97007 103.83 6.70007L105.6 3.17007C106.4 1.56007 107.45 1.32007 108 1.32007C108.55 1.32007 109.6 1.56007 110.4 3.17007L112.16 6.69007C112.3 6.96007 112.73 7.28007 113.03 7.33007L116.22 7.86007C117.95 8.15007 118.49 9.07007 118.65 9.59007C118.81 10.1101 118.91 11.1701 117.68 12.4101L115.2 14.9001C114.96 15.1401 114.81 15.6801 114.88 16.0101L115.59 19.0801C116.05 21.0801 115.34 21.9501 114.88 22.2901C114.63 22.4701 114.23 22.6701 113.66 22.6701ZM108 18.5901C108.49 18.5901 108.98 18.7101 109.37 18.9401L112.36 20.7101C113.23 21.2301 113.78 21.2301 113.99 21.0801C114.2 20.9301 114.35 20.4001 114.13 19.4201L113.42 16.3501C113.23 15.5201 113.54 14.4501 114.14 13.8401L116.62 11.3601C117.11 10.8701 117.33 10.3901 117.23 10.0601C117.12 9.73007 116.66 9.46007 115.98 9.35007L112.79 8.82007C112.02 8.69007 111.18 8.07007 110.83 7.37007L109.07 3.85007C108.75 3.21007 108.35 2.83007 108 2.83007C107.65 2.83007 107.25 3.21007 106.94 3.85007L105.17 7.37007C104.82 8.07007 103.98 8.69007 103.21 8.82007L100.03 9.35007C99.3501 9.46007 98.8901 9.73007 98.7801 10.0601C98.6701 10.3901 98.9001 10.8801 99.3901 11.3601L101.87 13.8401C102.47 14.4401 102.78 15.5201 102.59 16.3501L101.88 19.4201C101.65 20.4101 101.81 20.9301 102.02 21.0801C102.23 21.2301 102.77 21.2201 103.65 20.7101L106.64 18.9401C107.02 18.7101 107.51 18.5901 108 18.5901Z" fill="#292D32" fill-opacity="0.01"/>
<path d="M108 18.5901C108.49 18.5901 108.98 18.7101 109.37 18.9401L112.36 20.7101C113.23 21.2301 113.78 21.2301 113.99 21.0801C114.2 20.9301 114.35 20.4001 114.13 19.4201L113.42 16.3501C113.23 15.5201 113.54 14.4501 114.14 13.8401L116.62 11.3601C117.11 10.8701 117.33 10.3901 117.23 10.0601C117.12 9.73007 116.66 9.46007 115.98 9.35007L112.79 8.82007C112.02 8.69007 111.18 8.07007 110.83 7.37007L109.07 3.85007C108.75 3.21007 108.35 2.83007 108 2.83007C107.65 2.83007 107.25 3.21007 106.94 3.85007L105.17 7.37007C104.82 8.07007 103.98 8.69007 103.21 8.82007L100.03 9.35007C99.3501 9.46007 98.8901 9.73007 98.7801 10.0601C98.6701 10.3901 98.9001 10.8801 99.3901 11.3601L101.87 13.8401C102.47 14.4401 102.78 15.5201 102.59 16.3501L101.88 19.4201C101.65 20.4101 101.81 20.9301 102.02 21.0801C102.23 21.2301 102.77 21.2201 103.65 20.7101L106.64 18.9401C107.02 18.7101 107.51 18.5901 108 18.5901Z" fill="#E6E2E2"/>
</svg>
